# Blender 5.0.0 Beta
# www.blender.org
mtllib barrel.mtl
o camera.001_Circle.022
v 3.087822 1.764566 6.620636
v 3.404565 1.640426 6.618225
v 3.590898 1.426070 6.614384
v 3.685294 0.852662 5.720598
v 3.635290 0.526189 5.745283
v 3.418423 0.243889 5.740275
v 3.089441 0.107827 5.737864
v 2.730547 0.156841 5.762334
v 2.450570 0.379455 5.765816
v 2.319728 0.690778 5.724172
v 2.343703 0.971278 5.776357
v 2.517529 1.567361 6.616892
v 2.750340 1.725169 6.619750
v 2.924083 1.341128 7.177784
v 3.296757 1.243773 7.176558
v 3.493358 1.049757 7.174469
v 3.563518 0.703737 7.172024
v 3.411489 0.364209 7.223316
v 3.074368 0.202238 7.163888
v 2.790386 0.237897 7.141845
v 2.558622 0.408931 7.166799
v 2.438926 0.684407 7.194510
v 2.486416 0.996639 7.168311
v 2.602068 1.162394 7.174673
v 3.018242 1.266801 9.732478
v 3.268285 1.183816 9.731020
v 3.379409 1.098560 9.729507
v 3.464679 0.987452 9.727537
v 3.518280 0.858065 9.725243
v 3.536563 0.719215 9.722781
v 3.518280 0.580366 9.720320
v 3.464677 0.450979 9.718025
v 3.379409 0.339871 9.716055
v 3.268283 0.254616 9.714544
v 3.138876 0.201022 9.713594
v 3.000004 0.182742 9.713271
v 2.861133 0.201022 9.713595
v 2.731725 0.254616 9.714546
v 2.620600 0.339872 9.716058
v 2.535331 0.450980 9.718029
v 2.481729 0.580367 9.720324
v 2.463447 0.719217 9.722785
v 2.481729 0.858066 9.725246
v 2.535331 0.987453 9.727540
v 2.620601 1.098561 9.729510
v 2.731726 1.183816 9.731022
v 2.861133 1.237410 9.731971
v 2.984010 1.219279 9.731618
v 3.355751 1.074903 9.729134
v 3.502063 0.653131 9.721478
v 3.309291 0.334456 9.715942
v 3.064658 0.228243 9.714107
v 2.800867 0.267525 9.714758
v 2.568723 0.470250 9.718283
v 2.508954 0.783853 9.723959
v 2.647868 1.071308 9.728939
v 3.000029 0.864215 19.469482
v 3.082272 0.853391 19.469290
v 3.158909 0.821651 19.468727
v 3.224719 0.771160 19.467831
v 3.275217 0.705361 19.466663
v 3.306962 0.628735 19.465305
v 3.317789 0.546506 19.463848
v 3.306962 0.464275 19.462391
v 3.275217 0.387650 19.461031
v 3.224718 0.321850 19.459866
v 3.158909 0.271360 19.458971
v 3.082271 0.239621 19.458408
v 3.000028 0.228794 19.458216
v 2.917786 0.239621 19.458408
v 2.841148 0.271360 19.458971
v 2.775338 0.321850 19.459867
v 2.703277 0.423604 19.461678
v 2.693095 0.464276 19.462393
v 2.682268 0.546507 19.463852
v 2.693095 0.628735 19.465309
v 2.724840 0.705361 19.466667
v 2.775338 0.771161 19.467834
v 2.841148 0.821652 19.468727
v 2.917786 0.853391 19.469290
v 3.089471 0.787930 19.468126
v 3.265845 0.546507 19.463848
v 3.097918 0.310216 19.459650
v 2.842144 0.340776 19.460203
v 2.748488 0.546505 19.463846
v 2.835638 0.744666 19.467358
v 3.000007 1.053096 7.204859
v 3.074855 1.043244 7.204683
v 3.177519 0.995255 7.203826
v 3.250453 0.908523 7.202294
v 3.279343 0.838787 7.201058
v 3.289109 0.725895 7.199060
v 3.250452 0.619379 7.197168
v 3.177520 0.532648 7.195625
v 3.074854 0.484659 7.194779
v 2.961944 0.474894 7.194598
v 2.855411 0.513545 7.195292
v 2.768667 0.586465 7.196606
v 2.720670 0.689115 7.198406
v 2.710904 0.802008 7.200409
v 2.749561 0.908524 7.202296
v 2.795519 0.968408 7.203358
v 2.855412 1.014358 7.204172
v 2.925159 1.043244 7.204684
v 3.089091 1.513843 3.472209
v 3.423518 1.372049 3.469868
v 3.664777 1.024330 3.463975
v 3.641183 0.582269 3.455832
v 3.431268 0.294948 3.450738
v 3.023348 0.133918 3.447883
v 2.594474 0.275191 3.450390
v 2.371229 0.552286 3.455303
v 2.316192 0.920264 3.461828
v 2.498852 1.318214 3.468619
v 2.517528 1.312644 3.468784
v 2.730443 1.462719 3.471492
v 3.000005 1.354868 7.143344
v 3.152662 1.334773 7.142987
v 3.294917 1.275858 7.141942
v 3.417073 1.182139 7.140280
v 3.510807 1.060001 7.138113
v 3.569731 0.917769 7.135592
v 3.589829 0.765136 7.132885
v 3.569730 0.612502 7.130179
v 3.510806 0.470270 7.127658
v 3.417073 0.348133 7.125492
v 3.294915 0.254413 7.123831
v 3.152661 0.195499 7.122787
v 3.000003 0.175405 7.122431
v 2.847346 0.195500 7.122787
v 2.705091 0.254414 7.123833
v 2.582934 0.348133 7.125495
v 2.489200 0.470271 7.127661
v 2.430277 0.612503 7.130183
v 2.410180 0.765137 7.132889
v 2.430277 0.917770 7.135595
v 2.489201 1.060002 7.138117
v 2.582935 1.182140 7.140283
v 2.705092 1.275859 7.141944
v 2.847346 1.334773 7.142988
v 3.000005 1.350914 7.366336
v 3.152662 1.330819 7.365979
v 3.294917 1.271904 7.364934
v 3.417073 1.178185 7.363272
v 3.510807 1.056048 7.361106
v 3.569731 0.913815 7.358584
v 3.589829 0.761182 7.355878
v 3.569730 0.608548 7.353171
v 3.510806 0.466316 7.350650
v 3.417073 0.344179 7.348484
v 3.294915 0.250460 7.346823
v 3.152661 0.191545 7.345778
v 3.000003 0.171451 7.345423
v 2.847346 0.191546 7.345779
v 2.705091 0.250460 7.346826
v 2.582934 0.344180 7.348487
v 2.489200 0.466317 7.350653
v 2.430277 0.608549 7.353175
v 2.410180 0.761183 7.355882
v 2.430277 0.913817 7.358588
v 2.489201 1.056049 7.361109
v 2.582935 1.178186 7.363275
v 2.705092 1.271905 7.364936
v 2.847346 1.330819 7.365980
v 3.282836 0.406160 11.425145
v 3.000009 1.088860 11.437252
v 3.199998 1.035281 11.436300
v 2.613657 0.585438 11.428328
v 3.199998 0.342606 11.424020
v 3.282836 0.971727 11.435174
v 2.600029 0.688944 11.430162
v 3.103530 0.302654 11.423311
v 3.346400 0.888902 11.433706
v 2.613657 0.792450 11.431997
v 3.000007 0.289027 11.423071
v 3.386359 0.792449 11.431995
v 2.653615 0.888902 11.433708
v 2.896485 0.302654 11.423311
v 3.399987 0.688943 11.430161
v 2.717180 0.971728 11.435176
v 2.800018 0.342606 11.424021
v 3.386358 0.585437 11.428326
v 2.800018 1.035282 11.436302
v 2.717180 0.406160 11.425148
v 3.346400 0.488985 11.426614
v 2.896486 1.075234 11.437011
v 3.103531 1.075233 11.437010
v 2.653615 0.488986 11.426617
v 3.384445 0.467023 11.426224
v 2.885116 1.117661 11.437763
v 3.114901 1.117661 11.437761
v 2.615570 0.467024 11.426228
v 3.264248 0.328117 11.423748
v 3.059895 1.143721 11.438103
v 2.545160 0.748819 11.431103
v 3.394737 0.916799 11.434241
v 2.985509 0.235905 11.422100
v 3.433924 0.557677 11.427804
v 2.726846 1.044875 11.436499
v 2.669358 0.378847 11.424635
v 0.087811 1.764567 6.620637
v 0.404582 1.640414 6.618226
v 0.590898 1.426070 6.614386
v 0.697558 0.752564 5.679278
v 0.475468 0.281075 5.752058
v 0.080231 0.108608 5.761012
v -0.262898 0.154207 5.738687
v -0.539476 0.364001 5.718381
v -0.680686 0.692685 5.771834
v -0.656401 0.970979 5.776776
v -0.482471 1.567361 6.616893
v -0.249660 1.725169 6.619752
v -0.073805 1.325093 7.177537
v 0.287856 1.250697 7.176721
v 0.495891 1.057263 7.164174
v 0.553891 0.626079 7.222663
v 0.355550 0.323110 7.165270
v 0.087228 0.204490 7.163176
v -0.204473 0.235903 7.163731
v -0.446091 0.414577 7.189725
v -0.564252 0.690962 7.125961
v -0.513613 0.994461 7.176047
v -0.397932 1.162394 7.174674
v -0.404113 1.169792 7.174734
v 0.272686 1.191440 9.731121
v 0.268284 1.183816 9.731022
v 0.379409 1.098560 9.729509
v 0.464678 0.987452 9.727538
v 0.518280 0.858065 9.725245
v 0.536563 0.719215 9.722782
v 0.518280 0.580366 9.720321
v 0.464677 0.450979 9.718027
v 0.379409 0.339871 9.716057
v 0.268283 0.254616 9.714545
v 0.138876 0.201022 9.713596
v 0.000004 0.182742 9.713272
v -0.138867 0.201022 9.713596
v -0.268275 0.254616 9.714547
v -0.379400 0.339872 9.716059
v -0.464669 0.450980 9.718029
v -0.518271 0.580367 9.720324
v -0.536553 0.719217 9.722786
v -0.518271 0.858066 9.725247
v -0.464668 0.987453 9.727541
v -0.379399 1.098561 9.729511
v -0.268274 1.183816 9.731023
v -0.138867 1.237410 9.731972
v -0.015995 1.219279 9.731619
v 0.355750 1.074905 9.729136
v 0.488149 0.783489 9.723874
v 0.441138 0.483038 9.718563
v 0.199144 0.267525 9.714759
v -0.130210 0.233335 9.714214
v -0.441130 0.483039 9.718565
v -0.481033 0.848082 9.724982
v -0.309270 1.103986 9.729590
v 0.000029 0.864215 19.469482
v 0.082271 0.853391 19.469292
v 0.158909 0.821651 19.468727
v 0.224719 0.771160 19.467831
v 0.275217 0.705361 19.466665
v 0.306962 0.628735 19.465307
v 0.317788 0.546506 19.463848
v 0.306961 0.464275 19.462391
v 0.275217 0.387650 19.461033
v 0.224718 0.321850 19.459866
v 0.158909 0.271360 19.458973
v 0.082271 0.239621 19.458408
v 0.000028 0.228794 19.458218
v -0.082214 0.239621 19.458408
v -0.158852 0.271360 19.458973
v -0.224662 0.321850 19.459869
v -0.306905 0.464276 19.462395
v -0.317732 0.546507 19.463852
v -0.306905 0.628735 19.465309
v -0.275160 0.705361 19.466667
v -0.224662 0.771161 19.467834
v -0.158852 0.821652 19.468727
v -0.082214 0.853391 19.469292
v 0.118997 0.769465 19.467802
v 0.253862 0.589769 19.464611
v 0.140859 0.323815 19.459896
v -0.157857 0.340776 19.460205
v -0.252427 0.614140 19.465038
v -0.073529 0.788273 19.468134
v 0.000007 1.053096 7.204860
v 0.074855 1.043244 7.204684
v 0.144602 1.014358 7.204172
v 0.204495 0.968407 7.203358
v 0.250453 0.908523 7.202296
v 0.279343 0.838787 7.201059
v 0.289109 0.725895 7.199058
v 0.250452 0.619379 7.197169
v 0.204494 0.559495 7.196107
v 0.144601 0.513545 7.195293
v 0.074854 0.484659 7.194781
v 0.000006 0.474807 7.194607
v -0.074841 0.484659 7.194782
v -0.144589 0.513545 7.195294
v -0.231333 0.586465 7.196586
v -0.279330 0.689115 7.198407
v -0.289096 0.802008 7.200412
v -0.250439 0.908524 7.202297
v -0.204482 0.968408 7.203359
v -0.144589 1.014358 7.204173
v -0.074841 1.043244 7.204685
v 0.089077 1.513845 3.472210
v 0.423533 1.372036 3.469870
v 0.626542 1.109659 3.465321
v 0.683528 0.756641 3.458925
v 0.508967 0.354379 3.451792
v 0.090021 0.146555 3.448110
v -0.278016 0.201584 3.449086
v -0.614819 0.502307 3.454418
v -0.679300 0.936036 3.462108
v -0.501148 1.318214 3.468620
v -0.482472 1.312644 3.468785
v -0.269563 1.462717 3.471492
v 0.000004 1.354868 7.143345
v 0.152662 1.334773 7.142988
v 0.294917 1.275858 7.141943
v 0.417073 1.182139 7.140281
v 0.510807 1.060001 7.138115
v 0.569730 0.917769 7.135593
v 0.589828 0.765136 7.132887
v 0.569730 0.612502 7.130180
v 0.510806 0.470270 7.127659
v 0.417072 0.348133 7.125493
v 0.294915 0.254413 7.123832
v 0.152661 0.195499 7.122787
v 0.000003 0.175405 7.122432
v -0.152655 0.195500 7.122788
v -0.294909 0.254414 7.123834
v -0.417066 0.348133 7.125496
v -0.510800 0.470271 7.127662
v -0.569723 0.612503 7.130184
v -0.589820 0.765137 7.132891
v -0.569723 0.917770 7.135597
v -0.510799 1.060002 7.138118
v -0.417065 1.182140 7.140284
v -0.294908 1.275859 7.141945
v -0.152654 1.334773 7.142989
v 0.000005 1.350914 7.366337
v 0.152662 1.330819 7.365980
v 0.294917 1.271904 7.364935
v 0.417073 1.178185 7.363273
v 0.510807 1.056048 7.361107
v 0.569730 0.913815 7.358585
v 0.589829 0.761182 7.355879
v 0.569730 0.608548 7.353173
v 0.510806 0.466316 7.350651
v 0.417072 0.344179 7.348485
v 0.294915 0.250460 7.346824
v 0.152661 0.191545 7.345780
v 0.000003 0.171451 7.345425
v -0.152654 0.191546 7.345780
v -0.294909 0.250460 7.346827
v -0.417066 0.344180 7.348488
v -0.510800 0.466317 7.350654
v -0.569723 0.608549 7.353177
v -0.589820 0.761183 7.355883
v -0.569723 0.913817 7.358589
v -0.510799 1.056049 7.361110
v -0.417065 1.178186 7.363276
v -0.294908 1.271905 7.364937
v -0.152654 1.330819 7.365981
v 0.282836 0.406160 11.425146
v 0.000009 1.088860 11.437252
v 0.199998 1.035281 11.436302
v -0.386343 0.585438 11.428328
v 0.199997 0.342606 11.424021
v 0.282836 0.971727 11.435175
v -0.399972 0.688944 11.430162
v 0.103530 0.302654 11.423313
v 0.346400 0.888902 11.433707
v -0.386343 0.792450 11.431998
v 0.000007 0.289027 11.423071
v 0.386359 0.792449 11.431997
v -0.346385 0.888902 11.433708
v -0.103515 0.302654 11.423313
v 0.399987 0.688943 11.430162
v -0.282820 0.971728 11.435177
v -0.199982 0.342606 11.424023
v 0.386358 0.585437 11.428327
v -0.199982 1.035282 11.436303
v -0.282821 0.406160 11.425149
v 0.346400 0.488985 11.426615
v -0.103514 1.075234 11.437012
v 0.103531 1.075233 11.437011
v -0.346385 0.488986 11.426618
v 0.384445 0.467023 11.426226
v -0.114885 1.117661 11.437763
v 0.114901 1.117661 11.437763
v -0.384431 0.467024 11.426228
v 0.330662 0.378853 11.424634
v 0.239117 1.074041 11.436961
v -0.444647 0.640559 11.429290
v 0.000010 0.233223 11.422122
v 0.454854 0.748825 11.431104
v -0.390730 0.914484 11.434082
v -0.330644 0.378849 11.424636
v -0.117960 1.129135 11.438007
v -2.912176 1.764565 6.620639
v -2.595419 1.640414 6.618227
v -2.409102 1.426070 6.614387
v -2.315543 0.853158 5.741798
v -2.365491 0.520143 5.720830
v -2.594594 0.234762 5.739478
v -2.919769 0.108608 5.761012
v -3.336374 0.180484 5.708768
v -3.628594 0.511777 5.744392
v -3.683319 0.889715 5.738458
v -3.482471 1.567361 6.616895
v -3.249650 1.725173 6.619753
v -3.087162 1.324726 7.177546
v -2.712144 1.250697 7.176722
v -2.512626 1.045859 7.172606
v -2.440881 0.843759 7.170354
v -2.475109 0.554913 7.191755
v -2.644450 0.323110 7.165270
v -2.912772 0.204490 7.163177
v -3.204473 0.235903 7.163733
v -3.492153 0.469326 7.225185
v -3.562345 0.838093 7.175163
v -3.408432 1.173635 7.174918
v -3.397932 1.162394 7.174675
v -2.805960 1.242597 9.732041
v -2.731715 1.183816 9.731022
v -2.620591 1.098560 9.729510
v -2.535321 0.987452 9.727539
v -2.481720 0.858065 9.725245
v -2.463437 0.719215 9.722784
v -2.481720 0.580366 9.720322
v -2.535323 0.450979 9.718027
v -2.620591 0.339871 9.716058
v -2.731717 0.254616 9.714546
v -2.861124 0.201022 9.713596
v -2.999996 0.182742 9.713273
v -3.138867 0.201022 9.713598
v -3.268275 0.254616 9.714548
v -3.379399 0.339872 9.716061
v -3.464669 0.450980 9.718031
v -3.518270 0.580367 9.720325
v -3.536553 0.719217 9.722788
v -3.518270 0.858066 9.725248
v -3.464668 0.987453 9.727543
v -3.379399 1.098561 9.729513
v -3.268274 1.183816 9.731024
v -3.138866 1.237410 9.731974
v -2.951829 1.226614 9.731725
v -2.607058 1.020681 9.728157
v -2.499854 0.703213 9.722469
v -2.691726 0.317534 9.715528
v -3.053402 0.228486 9.714069
v -3.342334 0.354307 9.716284
v -3.507472 0.767376 9.723584
v -3.309273 1.103983 9.729591
v -2.999971 0.864215 19.469482
v -2.917728 0.853391 19.469292
v -2.841091 0.821651 19.468729
v -2.775281 0.771160 19.467833
v -2.724783 0.705361 19.466667
v -2.693038 0.628735 19.465309
v -2.682211 0.546506 19.463850
v -2.693038 0.464275 19.462391
v -2.724783 0.387650 19.461033
v -2.775281 0.321850 19.459866
v -2.841091 0.271360 19.458973
v -2.917729 0.239621 19.458408
v -2.999972 0.228794 19.458218
v -3.082214 0.239621 19.458408
v -3.158852 0.271360 19.458973
v -3.224662 0.321850 19.459869
v -3.325599 0.503645 19.463060
v -3.306905 0.464276 19.462395
v -3.317732 0.546507 19.463852
v -3.306905 0.628735 19.465311
v -3.275160 0.705361 19.466669
v -3.224662 0.771161 19.467834
v -3.158852 0.821652 19.468729
v -3.082214 0.853391 19.469292
v -3.033360 0.800075 19.468338
v -2.827338 0.731078 19.467123
v -2.745858 0.546506 19.463852
v -2.822108 0.368665 19.460693
v -3.023872 0.290162 19.459303
v -3.214502 0.412898 19.461481
v -3.239585 0.645742 19.465614
v -2.999993 1.053096 7.204861
v -2.925145 1.043244 7.204686
v -2.822481 0.995255 7.203834
v -2.749547 0.908523 7.202297
v -2.710891 0.802009 7.200411
v -2.720657 0.689115 7.198406
v -2.749547 0.619379 7.197170
v -2.822481 0.532647 7.195626
v -2.925146 0.484659 7.194782
v -2.999994 0.474807 7.194608
v -3.074841 0.484659 7.194783
v -3.144589 0.513545 7.195295
v -3.231333 0.586465 7.196588
v -3.279330 0.689115 7.198408
v -3.289096 0.802008 7.200407
v -3.250439 0.908524 7.202298
v -3.204481 0.968408 7.203360
v -3.144588 1.014358 7.204175
v -3.074841 1.043244 7.204687
v -2.910923 1.513845 3.472211
v -2.576471 1.372039 3.469871
v -2.325241 0.999742 3.463612
v -2.408544 0.461865 3.453699
v -2.842309 0.151602 3.448200
v -3.278017 0.201585 3.449087
v -3.614818 0.502307 3.454419
v -3.679300 0.936037 3.462109
v -3.501148 1.318215 3.468621
v -3.482472 1.312644 3.468787
v -3.269576 1.462711 3.471494
v -2.999995 1.354868 7.143346
v -2.847338 1.334773 7.142989
v -2.705083 1.275858 7.141944
v -2.582927 1.182139 7.140282
v -2.489193 1.060001 7.138116
v -2.430269 0.917769 7.135594
v -2.410171 0.765136 7.132888
v -2.430270 0.612502 7.130182
v -2.489194 0.470270 7.127660
v -2.582927 0.348133 7.125494
v -2.705085 0.254413 7.123833
v -2.847339 0.195499 7.122789
v -2.999997 0.175405 7.122434
v -3.152654 0.195500 7.122789
v -3.294909 0.254414 7.123836
v -3.417065 0.348133 7.125497
v -3.510800 0.470271 7.127664
v -3.569722 0.612503 7.130186
v -3.589820 0.765137 7.132892
v -3.569722 0.917770 7.135598
v -3.510799 1.060002 7.138119
v -3.417064 1.182140 7.140285
v -3.294908 1.275859 7.141946
v -3.152654 1.334773 7.142990
v -2.999995 1.350914 7.366339
v -2.847338 1.330819 7.365981
v -2.705083 1.271904 7.364936
v -2.582927 1.178185 7.363274
v -2.489193 1.056048 7.361108
v -2.430269 0.913815 7.358586
v -2.410171 0.761182 7.355880
v -2.430270 0.608548 7.353174
v -2.489194 0.466316 7.350652
v -2.582927 0.344179 7.348487
v -2.705085 0.250460 7.346825
v -2.847339 0.191545 7.345781
v -2.999997 0.171451 7.345426
v -3.152654 0.191546 7.345782
v -3.294909 0.250460 7.346828
v -3.417065 0.344180 7.348489
v -3.510800 0.466317 7.350656
v -3.569722 0.608549 7.353178
v -3.589820 0.761183 7.355884
v -3.569722 0.913817 7.358590
v -3.510799 1.056049 7.361111
v -3.417064 1.178186 7.363276
v -3.294908 1.271905 7.364938
v -3.152654 1.330819 7.365982
v -2.717164 0.406160 11.425148
v -2.999991 1.088860 11.437254
v -2.800002 1.035281 11.436303
v -3.386343 0.585438 11.428329
v -2.800002 0.342606 11.424023
v -2.717164 0.971727 11.435177
v -3.399971 0.688944 11.430164
v -2.896470 0.302654 11.423313
v -2.653599 0.888902 11.433708
v -3.386343 0.792450 11.431999
v -2.999992 0.289027 11.423073
v -2.613641 0.792449 11.431997
v -3.346385 0.888902 11.433710
v -3.103515 0.302654 11.423314
v -2.600013 0.688943 11.430162
v -3.282820 0.971728 11.435179
v -3.199982 0.342606 11.424024
v -2.613642 0.585437 11.428328
v -3.199982 1.035282 11.436304
v -3.282820 0.406160 11.425150
v -2.653600 0.488985 11.426617
v -3.103514 1.075234 11.437014
v -2.896469 1.075233 11.437012
v -3.346385 0.488986 11.426619
v -2.615555 0.467023 11.426227
v -3.114884 1.117661 11.437765
v -2.885099 1.117661 11.437763
v -3.384430 0.467024 11.426229
v -2.828277 1.103436 11.437536
v -2.838164 0.272031 11.422756
v -2.600337 0.902908 11.433927
v -3.423842 0.864484 11.433156
v -3.116763 0.253212 11.422359
v -2.580017 0.496879 11.426705
v -3.131269 1.122795 11.437827
v -3.394720 0.461085 11.426164
v 3.176593 1.743928 6.620021
v 2.999998 1.767174 6.620433
v 3.341155 1.675776 6.618813
v 3.482466 1.567361 6.616890
v 3.590898 1.426070 6.614384
v 2.658841 1.675776 6.618814
v 2.517529 1.567361 6.616892
v 2.517529 1.567361 6.616892
v 2.823402 1.743930 6.620023
v 3.145659 1.308025 7.177253
v 3.000004 1.327198 7.177594
v 2.718621 1.251814 7.176258
v 2.602068 1.162394 7.174673
v 2.854349 1.308025 7.177255
v 3.138877 1.237410 9.731970
v 3.000005 1.255690 9.732295
v 3.455410 1.042072 9.728482
v 3.526785 0.578090 9.720243
v 3.275477 0.242162 9.714342
v 2.767064 0.211949 9.713766
v 2.466275 0.595103 9.720572
v 2.570230 1.075470 9.729078
v 3.126823 1.192432 9.731173
v 3.000005 1.209125 9.731469
v 3.244998 1.143489 9.730305
v 3.346478 1.065634 9.728924
v 3.424346 0.964170 9.727125
v 3.473295 0.846013 9.725030
v 3.489991 0.719215 9.722782
v 3.473295 0.592418 9.720533
v 3.424345 0.474261 9.718438
v 3.346477 0.372798 9.716639
v 3.244998 0.294942 9.715260
v 3.126822 0.246000 9.714392
v 3.000004 0.229307 9.714097
v 2.873187 0.246001 9.714393
v 2.755011 0.294943 9.715261
v 2.653532 0.372798 9.716641
v 2.575664 0.474262 9.718441
v 2.526714 0.592419 9.720536
v 2.510019 0.719217 9.722784
v 2.526714 0.846014 9.725033
v 2.575665 0.964171 9.727127
v 2.653533 1.065634 9.728926
v 2.755012 1.143490 9.730306
v 2.873187 1.192432 9.731174
v 3.137980 0.846920 19.469162
v 3.338097 0.532978 19.463585
v 3.152846 0.260263 19.458767
v 2.874343 0.243118 19.458439
v 2.724840 0.387650 19.461033
v 2.696592 0.672173 19.466047
v 2.877107 0.843212 19.469116
v 3.064081 0.785514 19.468086
v 2.967453 0.793870 19.468233
v 3.151939 0.744446 19.467365
v 3.230571 0.641987 19.465538
v 3.247507 0.546506 19.463848
v 3.230573 0.451030 19.462160
v 3.151937 0.348563 19.460340
v 3.032595 0.299140 19.459463
v 2.904533 0.315998 19.459761
v 2.802056 0.394622 19.461155
v 2.760982 0.482464 19.462715
v 2.752624 0.579071 19.464426
v 2.802054 0.698389 19.466539
v 2.876289 0.760795 19.467648
v 3.231603 0.956017 7.203132
v 3.272658 0.620862 7.197187
v 2.972077 0.464402 7.194417
v 2.742844 0.615506 7.197104
v 2.717447 0.849891 7.201254
v 2.920960 1.058912 7.204947
v 3.175321 1.341346 7.143104
v 3.479899 1.115635 7.139100
v 3.590884 0.828764 7.134013
v 3.483672 0.394059 7.126307
v 3.020193 0.163192 7.122214
v 2.571751 0.336951 7.125297
v 2.395568 0.844701 7.134299
v 2.697183 1.289552 7.142187
v 3.283542 1.292572 7.365301
v 3.543540 1.001469 7.360138
v 3.591118 0.683375 7.354498
v 3.462818 0.388425 7.349269
v 3.155165 0.182193 7.345613
v 2.697182 0.236766 7.346582
v 2.413255 0.624880 7.353465
v 2.456466 1.001467 7.360141
v 2.766701 1.324339 7.365866
v 2.653238 0.473073 11.426325
v 3.054724 1.104462 11.437543
v 2.712542 0.976371 11.435232
v 3.360371 0.496614 11.426739
v 2.854552 0.313155 11.423492
v 3.381957 0.847126 11.432924
v 3.118807 0.298172 11.423223
v 2.599156 0.741713 11.431107
v 3.313900 0.375101 11.424595
v 3.000009 1.132785 11.438030
v 3.221964 1.073321 11.436975
v 2.571223 0.574070 11.428125
v 3.221963 0.304566 11.423346
v 3.313900 1.002786 11.435724
v 2.556097 0.688944 11.430162
v 3.114900 0.260226 11.422560
v 3.384446 0.910864 11.434095
v 2.571223 0.803819 11.432199
v 3.000007 0.245103 11.422292
v 3.428793 0.803818 11.432198
v 2.615570 0.910865 11.434097
v 2.885115 0.260227 11.422560
v 3.443918 0.688943 11.430161
v 2.686116 1.002787 11.435726
v 2.778052 0.304566 11.423347
v 3.428793 0.574069 11.428123
v 2.778053 1.073322 11.436977
v 2.686115 0.375101 11.424597
v 0.176593 1.743928 6.620023
v -0.000002 1.767174 6.620435
v 0.341154 1.675776 6.618814
v 0.482466 1.567361 6.616892
v 0.590898 1.426070 6.614386
v -0.341159 1.675776 6.618815
v -0.482471 1.567361 6.616893
v -0.482471 1.567361 6.616893
v -0.176598 1.743930 6.620024
v 0.145659 1.308025 7.177255
v 0.000004 1.327198 7.177595
v -0.281379 1.251814 7.176259
v -0.145651 1.308025 7.177256
v 0.138877 1.237410 9.731972
v 0.000005 1.255690 9.732296
v 0.494490 0.937726 9.726650
v 0.532174 0.576647 9.720274
v 0.318979 0.282784 9.715037
v -0.093687 0.168953 9.713005
v -0.512364 0.507018 9.718968
v -0.501081 0.926737 9.726477
v -0.194030 1.242596 9.732041
v 0.126823 1.192432 9.731174
v 0.000005 1.209125 9.731470
v 0.244998 1.143489 9.730307
v 0.346478 1.065634 9.728926
v 0.424346 0.964170 9.727127
v 0.473295 0.846013 9.725031
v 0.489991 0.719215 9.722784
v 0.473295 0.592418 9.720535
v 0.424345 0.474261 9.718439
v 0.346477 0.372798 9.716640
v 0.244998 0.294942 9.715261
v 0.126822 0.246000 9.714394
v 0.000004 0.229307 9.714098
v -0.126813 0.246001 9.714394
v -0.244989 0.294943 9.715261
v -0.346468 0.372798 9.716642
v -0.424336 0.474262 9.718441
v -0.473286 0.592419 9.720537
v -0.489981 0.719217 9.722784
v -0.473286 0.846014 9.725033
v -0.424336 0.964171 9.727129
v -0.346468 1.065634 9.728928
v -0.244988 1.143490 9.730307
v -0.126813 1.192432 9.731174
v 0.125718 0.849893 19.469196
v 0.338096 0.560036 19.464066
v 0.163168 0.263985 19.458853
v -0.180722 0.260541 19.458757
v -0.275160 0.387650 19.461035
v -0.322946 0.546511 19.463831
v -0.202690 0.810660 19.468546
v 0.064081 0.785514 19.468086
v -0.032548 0.793870 19.468235
v 0.151940 0.744445 19.467358
v 0.230572 0.641987 19.465540
v 0.247507 0.546506 19.463848
v 0.230573 0.451030 19.462158
v 0.151938 0.348564 19.460339
v 0.032595 0.299140 19.459465
v -0.095466 0.315998 19.459768
v -0.197943 0.394619 19.461163
v -0.239018 0.482464 19.462715
v -0.247375 0.579072 19.464430
v -0.197946 0.698389 19.466541
v -0.123711 0.760795 19.467649
v 0.076864 1.050731 7.204820
v 0.260585 0.902952 7.202195
v 0.276163 0.649579 7.197694
v 0.039565 0.463521 7.194410
v -0.207838 0.556138 7.196043
v -0.300471 0.803502 7.200439
v -0.146963 1.018469 7.204240
v 0.020191 1.367080 7.143561
v 0.372818 1.227878 7.141092
v 0.586753 0.901432 7.135303
v 0.519191 0.465428 7.127573
v 0.240326 0.221683 7.123251
v -0.063638 0.174351 7.122413
v -0.411429 0.325226 7.125090
v -0.591109 0.687325 7.131511
v -0.547570 0.991911 7.136911
v -0.362949 1.238070 7.141275
v 0.371138 1.244774 7.364454
v -0.077816 1.352203 7.366360
v 0.587222 0.852618 7.357500
v 0.550833 0.533055 7.351834
v 0.283539 0.229790 7.346457
v -0.091453 0.174058 7.345470
v -0.372809 0.298439 7.347678
v -0.579075 0.606040 7.353133
v -0.550827 0.989307 7.359927
v -0.360803 1.231320 7.364218
v -0.313884 0.436216 11.425676
v 0.052786 1.089732 11.437277
v -0.215896 1.035660 11.436300
v 0.410709 0.688947 11.430177
v -0.092522 0.291134 11.423099
v -0.414350 0.727658 11.430832
v 0.287478 0.976366 11.435230
v 0.251684 0.361013 11.424306
v 0.313900 0.375101 11.424596
v 0.000009 1.132785 11.438031
v 0.221964 1.073321 11.436977
v -0.428778 0.574070 11.428126
v 0.221963 0.304566 11.423347
v 0.313900 1.002786 11.435726
v -0.443903 0.688944 11.430162
v 0.114900 0.260226 11.422561
v 0.384446 0.910864 11.434096
v -0.428778 0.803819 11.432199
v 0.000007 0.245103 11.422293
v 0.428793 0.803818 11.432199
v -0.384431 0.910865 11.434097
v -0.114885 0.260227 11.422561
v 0.443918 0.688943 11.430162
v -0.313884 1.002787 11.435728
v -0.221948 0.304566 11.423347
v 0.428793 0.574069 11.428125
v -0.221947 1.073322 11.436977
v -0.313885 0.375101 11.424599
v -2.823407 1.743928 6.620024
v -3.000002 1.767174 6.620436
v -2.658845 1.675776 6.618815
v -2.517534 1.567361 6.616893
v -2.409102 1.426070 6.614387
v -3.341159 1.675776 6.618816
v -3.482471 1.567361 6.616895
v -3.482471 1.567361 6.616895
v -3.176598 1.743930 6.620025
v -2.854341 1.308025 7.177256
v -2.999996 1.327198 7.177596
v -3.281379 1.251814 7.176260
v -3.145651 1.308025 7.177257
v -2.861123 1.237410 9.731972
v -2.999994 1.255690 9.732297
v -2.475706 0.878557 9.725595
v -2.498911 0.511693 9.719115
v -2.805959 0.195837 9.713481
v -3.356309 0.289513 9.715144
v -3.547666 0.737454 9.723098
v -3.337605 1.159130 9.730532
v -2.873176 1.192432 9.731174
v -2.999994 1.209125 9.731471
v -2.755002 1.143489 9.730307
v -2.653522 1.065634 9.728926
v -2.575654 0.964170 9.727127
v -2.526705 0.846013 9.725033
v -2.510009 0.719215 9.722784
v -2.526705 0.592418 9.720536
v -2.575655 0.474261 9.718441
v -2.653523 0.372798 9.716641
v -2.755002 0.294942 9.715261
v -2.873178 0.246000 9.714394
v -2.999996 0.229307 9.714099
v -3.126813 0.246001 9.714396
v -3.244989 0.294943 9.715263
v -3.346468 0.372798 9.716644
v -3.424336 0.474262 9.718443
v -3.473286 0.592419 9.720539
v -3.489981 0.719217 9.722786
v -3.473286 0.846014 9.725035
v -3.424335 0.964171 9.727130
v -3.346467 1.065634 9.728929
v -3.244988 1.143490 9.730309
v -3.126813 1.192432 9.731176
v -2.926457 0.862542 19.469446
v -2.717406 0.709620 19.466755
v -2.699510 0.408576 19.461390
v -2.969214 0.217374 19.458000
v -3.200778 0.297174 19.459427
v -3.275160 0.387650 19.461037
v -3.210985 0.800988 19.468349
v -2.935919 0.785514 19.468088
v -3.032547 0.793870 19.468241
v -2.848058 0.744444 19.467367
v -2.769428 0.641986 19.465540
v -2.752493 0.546506 19.463850
v -2.769427 0.451030 19.462162
v -2.848063 0.348563 19.460342
v -2.967405 0.299140 19.459467
v -3.095467 0.315998 19.459768
v -3.197944 0.394621 19.461161
v -3.239018 0.482464 19.462717
v -3.247375 0.579072 19.464432
v -3.197943 0.698391 19.466545
v -3.123711 0.760795 19.467651
v -2.773671 0.972721 7.203429
v -2.717433 0.678011 7.198207
v -2.860971 0.503414 7.195112
v -3.114383 0.487837 7.194829
v -3.300471 0.724398 7.199038
v -3.143105 1.036561 7.204561
v -2.922175 1.356157 7.143369
v -2.627183 1.227878 7.141093
v -2.420916 0.920272 7.135638
v -2.445724 0.550766 7.129087
v -2.627181 0.302395 7.124683
v -2.979807 0.163192 7.122217
v -3.411429 0.325226 7.125092
v -3.591110 0.687330 7.131513
v -3.547568 0.991916 7.136912
v -3.318496 1.276344 7.141954
v -2.766693 1.324339 7.365866
v -2.449166 0.989307 7.359924
v -2.412779 0.669742 7.354259
v -2.537183 0.388425 7.349271
v -2.844835 0.182193 7.345615
v -3.302815 0.236765 7.346584
v -3.579074 0.606040 7.353134
v -3.550825 0.989311 7.359929
v -3.283533 1.292573 7.365304
v -3.378196 0.515325 11.427069
v -2.841786 1.070833 11.436893
v -3.154718 1.062420 11.436794
v -2.667442 0.433809 11.425653
v -3.053951 0.279127 11.422856
v -3.360359 0.881267 11.433565
v -2.609158 0.807725 11.432259
v -2.686100 0.375101 11.424597
v -2.999991 1.132785 11.438032
v -2.778036 1.073321 11.436977
v -3.428777 0.574070 11.428127
v -2.778037 0.304566 11.423347
v -2.686099 1.002786 11.435727
v -3.443903 0.688944 11.430164
v -2.885100 0.260226 11.422562
v -2.615554 0.910864 11.434097
v -3.428777 0.803819 11.432201
v -2.999992 0.245103 11.422294
v -2.571207 0.803818 11.432199
v -3.384430 0.910865 11.434099
v -3.114885 0.260227 11.422562
v -2.556081 0.688943 11.430162
v -3.313884 1.002787 11.435729
v -3.221948 0.304566 11.423349
v -2.571207 0.574069 11.428125
v -3.221947 1.073322 11.436979
v -3.313884 0.375101 11.424600
vn 0.9923 -0.1101 0.0566
vn 0.9262 -0.3760 0.0288
vn 0.9996 0.0083 0.0277
vn 0.7129 -0.7006 0.0318
vn 0.6092 -0.7927 0.0239
vn 0.5411 0.7795 0.3157
vn 0.5706 0.6208 0.5376
vn 0.3992 0.7095 0.5808
vn 0.9656 0.2557 0.0477
vn 0.9092 0.3856 0.1571
vn -0.7787 0.6265 0.0341
vn -0.8261 0.5587 0.0730
vn -0.9606 0.2685 0.0721
vn -0.0679 0.9972 0.0318
vn -0.4106 -0.9117 0.0134
vn -0.7852 -0.6183 0.0337
vn -0.3749 -0.9266 0.0301
vn 0.9728 -0.2311 0.0169
vn -0.9726 -0.2318 0.0202
vn -0.9913 -0.1233 0.0460
vn 0.4750 -0.8799 0.0122
vn 0.1497 -0.9883 0.0293
vn 0.7805 0.6246 0.0283
vn 0.4944 -0.8692 -0.0002
vn 0.3098 -0.9508 -0.0080
vn 0.8901 -0.4558 -0.0017
vn 0.1531 0.9879 0.0239
vn 0.4741 0.8798 0.0329
vn 0.9124 0.4091 0.0125
vn -0.9864 0.1638 0.0119
vn -0.9400 0.3405 0.0191
vn -0.6741 0.7384 0.0202
vn -0.3667 -0.9303 -0.0027
vn -0.3558 -0.9345 -0.0073
vn 0.9997 -0.0153 0.0180
vn -0.8735 -0.4869 0.0016
vn -0.3771 0.9256 0.0312
vn -0.0000 -0.0177 0.9998
vn -0.0000 -0.0178 0.9998
vn 0.0001 -0.0177 0.9998
vn -0.9999 -0.0065 -0.0088
vn -0.8848 0.4658 0.0088
vn -0.4048 0.9144 0.0084
vn 0.2374 -0.9713 -0.0175
vn -0.3759 -0.9263 -0.0243
vn 0.6156 -0.7878 -0.0206
vn 0.5904 0.8071 0.0076
vn 0.8538 0.5205 0.0079
vn 1.0000 0.0064 -0.0056
vn -0.7734 -0.6338 -0.0107
vn 0.9455 -0.3255 -0.0071
vn 0.0516 0.9985 0.0174
vn -0.3879 -0.9212 0.0311
vn -0.5703 -0.8211 -0.0251
vn 0.0352 -0.9991 -0.0255
vn -0.7938 -0.6070 0.0379
vn -0.9155 -0.4019 -0.0164
vn -0.9878 -0.1501 0.0413
vn -0.9898 0.1422 -0.0054
vn -0.9797 0.1972 0.0355
vn 0.9660 0.2570 -0.0296
vn 0.2888 -0.9565 -0.0410
vn 0.0241 -0.9992 -0.0331
vn 0.7827 -0.6216 -0.0321
vn 0.7941 0.6078 0.0034
vn 0.9094 0.4139 0.0404
vn 0.9956 0.0860 -0.0372
vn -0.4768 -0.8788 -0.0186
vn -0.7317 -0.6813 -0.0231
vn 0.9885 -0.1483 -0.0291
vn -0.5514 0.8306 -0.0773
vn -0.3813 0.9235 -0.0422
vn 0.2335 0.9718 0.0331
vn -0.9616 -0.2702 -0.0490
vn -0.9865 0.1637 0.0082
vn 0.4639 0.8845 0.0494
vn 0.1183 0.9913 0.0572
vn 0.7186 0.6951 0.0221
vn -0.0012 0.9993 0.0371
vn -0.9925 0.1141 0.0447
vn -0.9912 0.1301 0.0237
vn -0.8687 -0.4952 0.0102
vn 0.8568 0.5127 0.0561
vn 0.9917 -0.1279 0.0138
vn -0.6733 0.7383 0.0397
vn 0.1139 -0.9935 0.0058
vn -0.0291 -0.9994 0.0207
vn -0.4185 -0.9082 -0.0001
vn -0.7409 -0.6708 0.0340
vn 0.9902 -0.1381 0.0229
vn 0.9718 -0.2311 0.0466
vn 0.7016 -0.7121 0.0261
vn 0.4996 0.8042 0.3221
vn 0.5694 0.6215 0.5380
vn 0.3965 0.7112 0.5805
vn 0.9607 0.2734 0.0482
vn 0.9177 0.3608 0.1663
vn -0.8062 0.5866 0.0766
vn -0.3472 0.9371 0.0352
vn -0.1354 0.9906 0.0215
vn -0.9167 -0.3995 0.0137
vn -0.9881 -0.1454 0.0505
vn -0.7861 -0.6172 0.0335
vn -0.1689 -0.9856 0.0041
vn -0.3770 -0.9256 0.0326
vn 0.1340 -0.9906 0.0274
vn 0.1450 0.9890 0.0274
vn 0.3813 0.9239 0.0321
vn 0.7230 0.6906 0.0202
vn 0.9987 0.0481 0.0171
vn 0.9997 -0.0238 0.0087
vn -0.6041 0.7964 0.0278
vn -0.5443 0.8385 0.0252
vn -0.9962 0.0863 0.0118
vn -0.5089 -0.8608 -0.0016
vn -0.7701 -0.6379 -0.0025
vn -0.2321 -0.9727 -0.0084
vn 0.5755 -0.8178 -0.0032
vn -0.8881 -0.4596 -0.0098
vn -0.9926 -0.1211 -0.0089
vn -0.4900 -0.8715 -0.0209
vn -0.1530 0.9881 0.0166
vn 0.5989 0.8008 0.0077
vn -0.5279 0.8493 0.0069
vn 0.5201 -0.8539 -0.0172
vn 0.3309 -0.9434 -0.0221
vn 0.9744 -0.2247 -0.0094
vn -0.9126 0.4087 0.0067
vn -0.2640 -0.9643 -0.0192
vn -0.9876 -0.1496 0.0475
vn -0.8714 -0.4903 -0.0173
vn -0.7911 -0.6109 0.0307
vn -0.9797 0.1975 0.0333
vn -0.9892 0.1467 -0.0062
vn 0.9190 0.3933 -0.0283
vn 0.9907 -0.1358 -0.0047
vn 0.6398 0.7667 -0.0532
vn 0.6122 0.7906 0.0123
vn 0.9726 0.2324 0.0071
vn 0.0391 0.9977 0.0547
vn -0.9657 -0.2592 -0.0175
vn -0.9928 -0.1176 -0.0223
vn -0.6858 -0.7277 -0.0142
vn 0.4740 -0.8804 -0.0143
vn 0.3887 -0.9205 -0.0387
vn 0.8698 -0.4933 -0.0067
vn 0.5372 0.8412 0.0616
vn 0.6894 0.7238 0.0301
vn -0.0027 0.9995 0.0306
vn 0.7371 -0.6748 0.0359
vn 0.4040 -0.9148 -0.0031
vn 0.8791 -0.4765 0.0096
vn -0.8773 -0.4799 0.0024
vn -0.9933 -0.1083 0.0391
vn -0.9708 0.2392 0.0177
vn 0.0007 -0.9996 0.0297
vn -0.2819 -0.9594 -0.0053
vn 0.9903 0.1296 0.0511
vn 0.9906 0.1347 0.0221
vn -0.8526 0.5199 0.0524
vn -0.6269 0.7786 0.0281
vn -0.7089 -0.7046 0.0320
vn -0.2538 0.9652 0.0625
vn -0.8616 -0.5065 0.0334
vn -0.9074 -0.4190 0.0335
vn -0.4736 -0.8805 0.0219
vn 0.5193 0.7919 0.3213
vn 0.5745 0.6160 0.5390
vn -0.8331 0.5490 0.0670
vn -0.9838 0.1235 0.1297
vn -0.9971 0.0708 0.0291
vn -0.6110 -0.7915 0.0147
vn -0.3899 -0.9201 0.0371
vn -0.5993 0.7995 0.0401
vn -0.1247 0.9921 0.0167
vn -0.9994 0.0263 0.0243
vn -0.9895 0.1340 0.0537
vn 0.3441 -0.9389 0.0062
vn 0.1255 -0.9917 0.0298
vn 0.6063 -0.7946 0.0325
vn 0.9460 0.3233 0.0230
vn 0.9973 0.0437 0.0595
vn 0.8993 0.4056 0.1637
vn 0.7825 -0.6226 -0.0042
vn 0.1415 -0.9899 -0.0025
vn -0.1241 -0.9922 -0.0113
vn 0.8778 0.4785 0.0227
vn 0.9597 0.2807 0.0120
vn 0.3568 0.9338 0.0261
vn -0.9960 -0.0882 0.0142
vn -0.9009 0.4337 0.0144
vn -0.9021 -0.4315 -0.0012
vn 0.9017 -0.4324 0.0078
vn -0.6129 0.7897 0.0285
vn -0.4052 0.9139 0.0251
vn -0.6281 -0.7782 0.0004
vn 0.0001 -0.0178 0.9998
vn -0.0001 -0.0177 0.9998
vn -0.7011 -0.7129 -0.0133
vn -0.6733 -0.7392 -0.0175
vn 0.1579 -0.9872 -0.0230
vn 0.9950 0.1001 0.0017
vn 0.9170 -0.3987 -0.0143
vn 0.8508 0.5255 0.0030
vn -0.4549 0.8904 0.0141
vn 0.1003 0.9949 0.0118
vn -0.6951 0.7189 0.0073
vn -1.0000 -0.0053 -0.0053
vn 0.4495 -0.8932 -0.0155
vn 0.4090 0.9124 0.0151
vn -0.9689 0.2474 0.0028
vn -0.8817 -0.4716 -0.0142
vn 0.9995 -0.0052 0.0318
vn 0.9740 0.2239 -0.0329
vn 0.9504 0.3084 0.0413
vn 0.3308 0.9427 0.0434
vn 0.2619 -0.9650 0.0125
vn -0.0021 -0.9999 -0.0118
vn 0.6112 -0.7910 -0.0268
vn -0.4793 -0.8775 -0.0154
vn -0.7013 -0.7127 -0.0162
vn 0.9899 -0.1417 0.0011
vn 0.9356 -0.3511 -0.0357
vn 0.9564 0.2905 0.0315
vn 0.7724 -0.6349 0.0182
vn 0.0415 0.9990 0.0144
vn 0.3770 0.9261 -0.0148
vn 0.6794 0.7338 -0.0036
vn -0.9632 -0.2689 -0.0024
vn -0.8751 -0.4822 0.0415
vn -0.9970 0.0765 0.0088
vn -0.7148 -0.6993 -0.0013
vn 0.7973 0.6029 0.0285
vn 0.8744 0.4830 0.0467
vn 0.9980 -0.0629 0.0074
vn -0.9237 0.3786 0.0593
vn -0.6318 0.7748 0.0228
vn -0.2332 -0.9723 0.0178
vn -0.1145 -0.9934 0.0015
vn 0.9187 -0.3924 0.0442
vn 0.5932 -0.8050 -0.0012
vn -0.3241 0.9437 0.0658
vn 0.1416 0.9893 0.0353
vn -0.2158 0.7632 0.6090
vn -0.2008 0.7661 0.6105
vn -0.3987 0.7088 0.5819
vn -0.4272 0.6970 0.5759
vn 0.2021 0.7657 0.6106
vn -0.0000 0.7848 0.6197
vn 0.2175 0.7626 0.6092
vn 0.1345 -0.9906 0.0266
vn 0.6362 0.5716 0.5182
vn -0.9680 0.2237 0.1136
vn -0.0037 0.9992 0.0394
vn -0.9063 -0.4225 0.0045
vn 0.6106 -0.7918 -0.0159
vn -0.5114 0.6567 0.5543
vn -0.3633 0.9287 -0.0748
vn -0.5666 0.8214 -0.0657
vn -0.3516 0.9331 -0.0752
vn -0.9160 0.4012 -0.0013
vn 0.1304 0.9882 -0.0802
vn 0.1262 0.9888 -0.0802
vn 0.5980 0.7987 -0.0666
vn 0.6157 0.7852 -0.0656
vn 0.9330 -0.3598 -0.0097
vn -0.8732 0.4863 0.0307
vn 0.7586 -0.6493 0.0545
vn -0.0000 0.0177 -0.9998
vn 0.6260 -0.7797 0.0128
vn 0.9689 -0.2457 0.0297
vn 0.6224 -0.7826 0.0129
vn -0.6277 0.7770 0.0482
vn -0.3890 -0.9209 0.0247
vn 0.1989 0.7668 0.6103
vn 0.2136 0.7640 0.6088
vn 0.6206 -0.7830 0.0407
vn 0.1447 -0.9892 0.0244
vn 0.6323 0.5744 0.5199
vn -0.9596 0.2716 0.0732
vn -0.9690 0.2213 0.1101
vn 0.9708 -0.2400 0.0042
vn 0.9057 0.4236 0.0183
vn -0.9237 0.3823 0.0258
vn 0.6020 -0.7985 -0.0005
vn 0.4595 0.8877 0.0306
vn 0.5394 -0.8420 -0.0019
vn -0.9998 0.0132 0.0131
vn 0.9907 -0.1362 -0.0058
vn 0.7123 0.7018 0.0093
vn 0.1486 -0.9887 -0.0188
vn 0.7139 -0.7001 -0.0111
vn -0.4060 -0.9137 -0.0191
vn -0.9140 0.4058 -0.0004
vn 0.5848 0.8085 -0.0659
vn 0.6014 0.7963 -0.0650
vn -0.9287 0.3699 0.0259
vn -0.9287 0.3698 0.0259
vn -0.1086 -0.9940 -0.0153
vn -0.1524 -0.9881 -0.0199
vn -0.5953 0.8034 -0.0100
vn -0.5952 0.8035 -0.0100
vn 0.9896 0.1434 0.0095
vn -0.6139 -0.7894 0.0084
vn 0.9333 -0.3592 -0.0023
vn -0.1394 0.9892 0.0452
vn 0.9212 -0.3869 0.0421
vn 0.9197 -0.3911 0.0337
vn 0.5975 -0.8012 0.0324
vn 0.1141 -0.9931 0.0285
vn 0.6425 0.5616 0.5214
vn 0.9201 -0.3915 0.0088
vn 0.2528 0.9671 0.0296
vn 0.2336 -0.9720 -0.0263
vn -0.4168 -0.9087 -0.0220
vn -0.9894 0.1452 0.0010
vn -0.9150 0.4034 0.0027
vn 0.6016 0.7960 -0.0668
vn 0.6196 0.7821 -0.0658
vn 0.8531 -0.5211 -0.0242
vn 0.8947 0.4406 0.0732
vn -0.9196 0.3911 0.0385
vn -0.9195 0.3911 0.0385
vn -0.5119 0.8568 0.0619
vn -0.4386 0.8961 0.0678
vn 0.3479 0.9361 0.0525
vn 0.4145 -0.9098 0.0202
vt 0.404643 0.643305
vt 0.471972 0.631253
vt 0.472199 0.646163
vt 0.403567 0.624826
vt 0.471488 0.614820
vt 0.408917 0.677388
vt 0.442612 0.675913
vt 0.443179 0.682948
vt 0.441844 0.668656
vt 0.406963 0.661931
vt 0.516219 0.268986
vt 0.401065 0.269140
vt 0.401278 0.259553
vt 0.400915 0.286531
vt 0.518759 0.225248
vt 0.402409 0.230258
vt 0.403181 0.216606
vt 0.517363 0.333569
vt 0.402712 0.352568
vt 0.401832 0.334635
vt 0.517102 0.247078
vt 0.401768 0.244526
vt 0.518828 0.352395
vt 0.403816 0.370076
vt 0.516399 0.312615
vt 0.401267 0.317798
vt 0.401057 0.307750
vt 0.403818 0.206826
vt 0.892068 0.339302
vt 0.603489 0.347546
vt 0.602394 0.331786
vt 0.601346 0.292550
vt 0.891288 0.298815
vt 0.601684 0.313916
vt 0.601876 0.260374
vt 0.891400 0.269163
vt 0.601496 0.273839
vt 0.892388 0.240502
vt 0.603281 0.233523
vt 0.604145 0.226353
vt 0.891424 0.320394
vt 0.602451 0.246399
vt 0.891302 0.283659
vt 0.891406 0.271547
vt 0.896007 0.273926
vt 0.891349 0.276320
vt 0.892530 0.238136
vt 0.896785 0.241096
vt 0.891978 0.242968
vt 0.896116 0.326709
vt 0.891582 0.329141
vt 0.891427 0.324392
vt 0.896173 0.250282
vt 0.891631 0.252491
vt 0.891741 0.247779
vt 0.895975 0.288535
vt 0.891331 0.290897
vt 0.891313 0.286108
vt 0.891686 0.333864
vt 0.896432 0.335974
vt 0.891913 0.338690
vt 0.895831 0.302900
vt 0.891317 0.305246
vt 0.891264 0.300532
vt 0.896085 0.264418
vt 0.891363 0.266770
vt 0.891473 0.261995
vt 0.892445 0.343547
vt 0.897388 0.345008
vt 0.893269 0.348695
vt 0.896088 0.312313
vt 0.891312 0.314795
vt 0.891304 0.309962
vt 0.297151 0.020358
vt 0.373398 0.828214
vt 0.278117 0.022931
vt 0.373555 0.826572
vt 0.316966 0.017516
vt 0.334013 0.014933
vt 0.363420 0.013522
vt 0.374151 0.827335
vt 0.348382 0.013408
vt 0.373215 0.827081
vt 0.373958 0.826730
vt 0.373992 0.828340
vt 0.374170 0.013551
vt 0.470755 0.785872
vt 0.577752 0.775677
vt 0.578211 0.791821
vt 0.471491 0.769225
vt 0.577181 0.758815
vt 0.471922 0.753924
vt 0.576446 0.741241
vt 0.472105 0.741290
vt 0.576051 0.656543
vt 0.454715 0.886992
vt 0.450259 0.897867
vt 0.436232 0.879057
vt 0.415818 0.851683
vt 0.427293 0.850221
vt 0.424133 0.862833
vt 0.467142 0.903655
vt 0.463279 0.915327
vt 0.435987 0.861878
vt 0.492382 0.954353
vt 0.502514 0.951088
vt 0.500670 0.965466
vt 0.480162 0.921115
vt 0.477808 0.934809
vt 0.405564 0.837934
vt 0.416758 0.836093
vt 0.599207 0.292569
vt 0.518399 0.308576
vt 0.518152 0.289196
vt 0.599736 0.260311
vt 0.518817 0.255705
vt 0.519661 0.240245
vt 0.599474 0.311282
vt 0.519345 0.330274
vt 0.518278 0.271260
vt 0.522264 0.215364
vt 0.601788 0.228010
vt 0.520887 0.225127
vt 0.600590 0.242296
vt 0.880456 0.641813
vt 0.812793 0.639831
vt 0.879900 0.617922
vt 0.817283 0.677930
vt 0.850926 0.675913
vt 0.851494 0.682948
vt 0.850158 0.668656
vt 0.815357 0.662263
vt 0.401065 0.462588
vt 0.515993 0.474945
vt 0.400895 0.480006
vt 0.517331 0.436651
vt 0.401757 0.438263
vt 0.402390 0.424088
vt 0.519334 0.413576
vt 0.403197 0.409819
vt 0.403817 0.400293
vt 0.601327 0.486008
vt 0.891284 0.491571
vt 0.601484 0.499398
vt 0.891399 0.512227
vt 0.601943 0.515392
vt 0.891340 0.472276
vt 0.601412 0.471969
vt 0.601930 0.453054
vt 0.892179 0.437189
vt 0.602536 0.437391
vt 0.603616 0.424283
vt 0.602917 0.533820
vt 0.891406 0.465013
vt 0.896007 0.467392
vt 0.891349 0.469786
vt 0.892530 0.431603
vt 0.896784 0.434562
vt 0.891978 0.436435
vt 0.896116 0.520175
vt 0.891582 0.522607
vt 0.891426 0.517858
vt 0.896173 0.443749
vt 0.891630 0.445958
vt 0.891741 0.441246
vt 0.895975 0.482002
vt 0.891331 0.484364
vt 0.891313 0.479575
vt 0.891686 0.527331
vt 0.896432 0.529441
vt 0.891913 0.532157
vt 0.891264 0.493999
vt 0.895831 0.496367
vt 0.891317 0.498713
vt 0.896084 0.457885
vt 0.891363 0.460237
vt 0.891473 0.455461
vt 0.892445 0.537013
vt 0.897388 0.538474
vt 0.893269 0.542162
vt 0.896087 0.505780
vt 0.891311 0.508261
vt 0.891304 0.503428
vt 0.244169 0.828426
vt 0.170775 0.019983
vt 0.185552 0.017858
vt 0.244869 0.829014
vt 0.234261 0.013520
vt 0.245035 0.013547
vt 0.244479 0.827499
vt 0.198349 0.015941
vt 0.214961 0.013778
vt 0.244438 0.829132
vt 0.151677 0.022583
vt 0.244233 0.827790
vt 0.880238 0.753799
vt 0.985578 0.761209
vt 0.879773 0.770096
vt 0.880419 0.741304
vt 0.984725 0.740476
vt 0.984153 0.660882
vt 0.984952 0.644101
vt 0.680811 0.846107
vt 0.688512 0.839584
vt 0.691346 0.860235
vt 0.671771 0.833985
vt 0.748812 0.920443
vt 0.742796 0.929227
vt 0.731883 0.914592
vt 0.720209 0.882089
vt 0.713314 0.889694
vt 0.703280 0.876238
vt 0.599272 0.494712
vt 0.518399 0.502043
vt 0.518152 0.482662
vt 0.600594 0.530689
vt 0.521221 0.548190
vt 0.519894 0.532364
vt 0.519614 0.434426
vt 0.599923 0.448873
vt 0.518695 0.452276
vt 0.601908 0.545331
vt 0.522551 0.557854
vt 0.599736 0.512784
vt 0.518999 0.517501
vt 0.599467 0.461883
vt 0.518197 0.467231
vt 0.521401 0.414943
vt 0.600589 0.435763
vt 0.599213 0.478020
vt 0.608263 0.760308
vt 0.675874 0.762265
vt 0.675052 0.782847
vt 0.613127 0.677939
vt 0.646769 0.675913
vt 0.647336 0.682948
vt 0.611824 0.722595
vt 0.646792 0.717568
vt 0.676216 0.745250
vt 0.518142 0.038118
vt 0.402240 0.040395
vt 0.403197 0.022885
vt 0.516097 0.080832
vt 0.400896 0.092442
vt 0.401064 0.075730
vt 0.516768 0.059826
vt 0.401509 0.058268
vt 0.519360 0.162983
vt 0.403772 0.175991
vt 0.402872 0.162060
vt 0.516648 0.126780
vt 0.401583 0.134572
vt 0.401269 0.124395
vt 0.602598 0.141711
vt 0.892778 0.151863
vt 0.603786 0.157297
vt 0.891312 0.116570
vt 0.601736 0.122447
vt 0.601376 0.104428
vt 0.891480 0.066148
vt 0.601673 0.074305
vt 0.602333 0.055466
vt 0.891548 0.133997
vt 0.891345 0.084599
vt 0.601364 0.088373
vt 0.891838 0.052342
vt 0.603692 0.036645
vt 0.891406 0.078080
vt 0.896007 0.080460
vt 0.891349 0.082853
vt 0.892530 0.044669
vt 0.896785 0.047629
vt 0.891978 0.049501
vt 0.896116 0.133242
vt 0.891583 0.135674
vt 0.891427 0.130925
vt 0.896173 0.056815
vt 0.891631 0.059024
vt 0.891741 0.054313
vt 0.895975 0.095068
vt 0.891331 0.097430
vt 0.891313 0.092641
vt 0.891686 0.140397
vt 0.896432 0.142508
vt 0.891913 0.145223
vt 0.895831 0.109434
vt 0.891317 0.111780
vt 0.891264 0.107066
vt 0.896085 0.070951
vt 0.891364 0.073303
vt 0.891474 0.068528
vt 0.892445 0.150080
vt 0.897388 0.151541
vt 0.893269 0.155228
vt 0.896088 0.118846
vt 0.891312 0.121328
vt 0.891304 0.116495
vt 0.114982 0.828213
vt 0.052103 0.018480
vt 0.066478 0.016345
vt 0.115703 0.827776
vt 0.083568 0.013903
vt 0.099154 0.013489
vt 0.115534 0.829106
vt 0.015867 0.023452
vt 0.026107 0.022107
vt 0.038853 0.020367
vt 0.115273 0.827533
vt 0.115805 0.828660
vt 0.112977 0.013544
vt 0.115199 0.829123
vt 0.781420 0.761209
vt 0.676356 0.646207
vt 0.780268 0.655308
vt 0.646001 0.668656
vt 0.516044 0.104929
vt 0.401086 0.115792
vt 0.589291 0.886992
vt 0.584835 0.897867
vt 0.574581 0.884118
vt 0.601772 0.903729
vt 0.597307 0.914593
vt 0.570941 0.862386
vt 0.566266 0.872968
vt 0.556270 0.859563
vt 0.579257 0.873537
vt 0.537541 0.834449
vt 0.549779 0.834009
vt 0.546235 0.846107
vt 0.614236 0.920443
vt 0.608221 0.929228
vt 0.600321 0.053515
vt 0.518876 0.061392
vt 0.520176 0.039763
vt 0.518477 0.118137
vt 0.599491 0.118487
vt 0.519207 0.134452
vt 0.599563 0.072239
vt 0.518197 0.080297
vt 0.601458 0.037698
vt 0.521855 0.024410
vt 0.600237 0.137212
vt 0.520720 0.155536
vt 0.599218 0.090412
vt 0.518161 0.098687
vt 0.403805 0.764004
vt 0.402295 0.778000
vt 0.409285 0.705102
vt 0.443547 0.703547
vt 0.443193 0.710477
vt 0.408705 0.713770
vt 0.443541 0.689844
vt 0.443702 0.696688
vt 0.409396 0.696465
vt 0.409473 0.687844
vt 0.404932 0.749370
vt 0.470734 0.598012
vt 0.401781 0.606844
vt 0.406945 0.661854
vt 0.405700 0.733989
vt 0.469980 0.798923
vt 0.400887 0.788294
vt 0.442635 0.717568
vt 0.407648 0.722683
vt 0.515938 0.290734
vt 0.516712 0.321013
vt 0.516397 0.314782
vt 0.518641 0.314700
vt 0.518785 0.320920
vt 0.520514 0.364994
vt 0.516292 0.265044
vt 0.516482 0.258733
vt 0.518748 0.258823
vt 0.518448 0.265103
vt 0.519057 0.221168
vt 0.520062 0.214713
vt 0.521274 0.221447
vt 0.516942 0.327269
vt 0.519214 0.327149
vt 0.516181 0.271185
vt 0.518212 0.271230
vt 0.518427 0.227529
vt 0.520614 0.227719
vt 0.519502 0.333447
vt 0.517339 0.333591
vt 0.516016 0.277323
vt 0.518175 0.277362
vt 0.520092 0.233980
vt 0.517916 0.233826
vt 0.517803 0.339763
vt 0.519863 0.339609
vt 0.515907 0.283645
vt 0.518199 0.283660
vt 0.518130 0.296198
vt 0.515972 0.296234
vt 0.515922 0.289986
vt 0.518108 0.289972
vt 0.519644 0.240226
vt 0.517478 0.240096
vt 0.520476 0.345843
vt 0.518199 0.346029
vt 0.518213 0.302390
vt 0.516080 0.302445
vt 0.519253 0.246446
vt 0.517109 0.246338
vt 0.520960 0.352164
vt 0.518780 0.352386
vt 0.518314 0.308508
vt 0.516271 0.308572
vt 0.516833 0.252496
vt 0.518886 0.252588
vt 0.521591 0.358356
vt 0.519478 0.358656
vt 0.522551 0.364387
vt 0.891550 0.254859
vt 0.893353 0.233118
vt 0.897878 0.234614
vt 0.891435 0.319603
vt 0.896003 0.319579
vt 0.896308 0.281226
vt 0.891290 0.281211
vt 0.896122 0.295718
vt 0.891236 0.295703
vt 0.891469 0.257228
vt 0.896234 0.257286
vt 0.578217 0.600663
vt 0.577611 0.618946
vt 0.374014 0.826813
vt 0.374124 0.827092
vt 0.374166 0.827453
vt 0.374136 0.827876
vt 0.374030 0.828380
vt 0.373833 0.828567
vt 0.373607 0.828620
vt 0.373383 0.828311
vt 0.373243 0.827851
vt 0.373178 0.827438
vt 0.373180 0.827199
vt 0.373242 0.826906
vt 0.373351 0.826684
vt 0.373446 0.826587
vt 0.373551 0.826531
vt 0.373662 0.826517
vt 0.373772 0.826547
vt 0.373878 0.826619
vt 0.574921 0.708534
vt 0.575375 0.720413
vt 0.443399 0.706453
vt 0.575392 0.720737
vt 0.574741 0.692273
vt 0.443623 0.693329
vt 0.442950 0.680111
vt 0.575114 0.675976
vt 0.576987 0.635730
vt 0.490415 0.934864
vt 0.444681 0.873537
vt 0.408963 0.825640
vt 0.455468 0.879174
vt 0.456470 0.872291
vt 0.459220 0.865903
vt 0.463529 0.860444
vt 0.469104 0.856287
vt 0.475565 0.853714
vt 0.482473 0.852901
vt 0.489355 0.853903
vt 0.495743 0.856653
vt 0.501202 0.860962
vt 0.505359 0.866537
vt 0.507932 0.872998
vt 0.508745 0.879905
vt 0.507743 0.886787
vt 0.504994 0.893176
vt 0.500684 0.898635
vt 0.495109 0.902792
vt 0.488648 0.905365
vt 0.481741 0.906178
vt 0.474859 0.905176
vt 0.468471 0.902426
vt 0.463012 0.898117
vt 0.458854 0.892542
vt 0.456281 0.886081
vt 0.425142 0.891316
vt 0.432049 0.890503
vt 0.438931 0.891505
vt 0.445320 0.894255
vt 0.450779 0.898564
vt 0.454936 0.904139
vt 0.457509 0.910601
vt 0.458322 0.917508
vt 0.457320 0.924390
vt 0.454570 0.930778
vt 0.450261 0.936237
vt 0.444686 0.940395
vt 0.438225 0.942968
vt 0.431318 0.943781
vt 0.424436 0.942778
vt 0.418047 0.940029
vt 0.412588 0.935720
vt 0.408431 0.930145
vt 0.405858 0.923683
vt 0.405045 0.916776
vt 0.406047 0.909894
vt 0.408796 0.903506
vt 0.413106 0.898047
vt 0.418681 0.893889
vt 0.602416 0.247003
vt 0.600306 0.246886
vt 0.600643 0.241672
vt 0.602620 0.241789
vt 0.599199 0.295246
vt 0.599182 0.289882
vt 0.601319 0.289866
vt 0.601335 0.295216
vt 0.601337 0.284515
vt 0.599201 0.284517
vt 0.599254 0.279154
vt 0.601390 0.279166
vt 0.600346 0.332530
vt 0.600055 0.327305
vt 0.602146 0.327194
vt 0.602351 0.332415
vt 0.600935 0.236468
vt 0.603013 0.236611
vt 0.599341 0.273789
vt 0.601481 0.273817
vt 0.599816 0.321999
vt 0.601933 0.321899
vt 0.601355 0.231158
vt 0.603467 0.231382
vt 0.599461 0.268413
vt 0.601620 0.268459
vt 0.599620 0.316666
vt 0.601746 0.316580
vt 0.602093 0.225797
vt 0.599601 0.262976
vt 0.601846 0.263050
vt 0.599462 0.311320
vt 0.601592 0.311248
vt 0.602186 0.353820
vt 0.601425 0.348470
vt 0.603463 0.348229
vt 0.604110 0.353299
vt 0.599859 0.257618
vt 0.601906 0.257697
vt 0.599339 0.305967
vt 0.601472 0.305909
vt 0.600959 0.343201
vt 0.603071 0.343029
vt 0.600015 0.252265
vt 0.602244 0.252364
vt 0.599252 0.300608
vt 0.601386 0.300564
vt 0.600577 0.337839
vt 0.602790 0.337701
vt 0.520676 0.348455
vt 0.600105 0.327904
vt 0.600801 0.340985
vt 0.522071 0.361371
vt 0.601805 0.351145
vt 0.599298 0.276471
vt 0.817019 0.713770
vt 0.851507 0.710477
vt 0.850949 0.717567
vt 0.815962 0.722683
vt 0.812153 0.763632
vt 0.879051 0.786212
vt 0.810578 0.778260
vt 0.817599 0.705102
vt 0.851862 0.703547
vt 0.851855 0.689844
vt 0.852016 0.696688
vt 0.817710 0.696465
vt 0.817788 0.687843
vt 0.811664 0.621779
vt 0.813263 0.749092
vt 0.810175 0.607477
vt 0.879026 0.597582
vt 0.815259 0.661854
vt 0.814011 0.734081
vt 0.878294 0.798922
vt 0.809201 0.788294
vt 0.517367 0.527044
vt 0.401984 0.531470
vt 0.401259 0.510991
vt 0.516526 0.510800
vt 0.401281 0.452930
vt 0.516386 0.455355
vt 0.402873 0.548994
vt 0.518542 0.543249
vt 0.403772 0.562925
vt 0.520090 0.555865
vt 0.401084 0.502593
vt 0.516107 0.495856
vt 0.516712 0.514480
vt 0.516397 0.508249
vt 0.518641 0.508167
vt 0.518785 0.514387
vt 0.516291 0.458511
vt 0.516481 0.452200
vt 0.518748 0.452290
vt 0.518447 0.458570
vt 0.519057 0.414635
vt 0.520062 0.408179
vt 0.522264 0.408831
vt 0.521274 0.414914
vt 0.516942 0.520737
vt 0.519214 0.520616
vt 0.518212 0.464697
vt 0.516181 0.464652
vt 0.518427 0.420996
vt 0.520614 0.421186
vt 0.519502 0.526914
vt 0.517339 0.527058
vt 0.518175 0.470829
vt 0.516016 0.470790
vt 0.520091 0.427447
vt 0.517916 0.427293
vt 0.517803 0.533230
vt 0.519863 0.533076
vt 0.515907 0.477112
vt 0.518199 0.477127
vt 0.518130 0.489665
vt 0.515972 0.489701
vt 0.515922 0.483453
vt 0.518108 0.483439
vt 0.519644 0.433693
vt 0.517478 0.433563
vt 0.520476 0.539310
vt 0.518199 0.539496
vt 0.516080 0.495912
vt 0.518213 0.495857
vt 0.519253 0.439913
vt 0.517109 0.439805
vt 0.520960 0.545631
vt 0.518780 0.545853
vt 0.516271 0.502039
vt 0.518314 0.501976
vt 0.516833 0.445963
vt 0.518886 0.446055
vt 0.521591 0.551823
vt 0.519478 0.552123
vt 0.520514 0.558461
vt 0.892023 0.532136
vt 0.891435 0.455443
vt 0.604110 0.546766
vt 0.893353 0.426585
vt 0.897878 0.428080
vt 0.891435 0.513069
vt 0.896002 0.513046
vt 0.896308 0.474693
vt 0.891290 0.474678
vt 0.896122 0.489185
vt 0.891235 0.489169
vt 0.896233 0.450753
vt 0.891468 0.450694
vt 0.244820 0.827645
vt 0.245022 0.828252
vt 0.986508 0.601363
vt 0.985762 0.623429
vt 0.244496 0.829176
vt 0.244324 0.829085
vt 0.244194 0.828648
vt 0.244156 0.828387
vt 0.244151 0.828153
vt 0.244175 0.827949
vt 0.244225 0.827778
vt 0.244295 0.827641
vt 0.244381 0.827543
vt 0.244477 0.827486
vt 0.244579 0.827470
vt 0.244682 0.827497
vt 0.244824 0.827622
vt 0.244948 0.827833
vt 0.245019 0.828131
vt 0.245028 0.828498
vt 0.245000 0.828791
vt 0.244939 0.829112
vt 0.244826 0.829094
vt 0.244717 0.829102
vt 0.244607 0.829130
vt 0.986641 0.796053
vt 0.986270 0.782588
vt 0.983235 0.708534
vt 0.983689 0.720413
vt 0.851713 0.706453
vt 0.983707 0.720737
vt 0.983055 0.692273
vt 0.851937 0.693330
vt 0.851265 0.680110
vt 0.983429 0.675975
vt 0.759187 0.934355
vt 0.751111 0.940378
vt 0.721630 0.900844
vt 0.730463 0.895837
vt 0.759427 0.951528
vt 0.767502 0.945506
vt 0.700602 0.855796
vt 0.738778 0.906987
vt 0.709296 0.867453
vt 0.775818 0.956657
vt 0.767742 0.962679
vt 0.678114 0.825640
vt 0.602416 0.440470
vt 0.600306 0.440353
vt 0.600643 0.435139
vt 0.602619 0.435256
vt 0.724619 0.879174
vt 0.725621 0.872291
vt 0.728371 0.865903
vt 0.732680 0.860444
vt 0.738255 0.856287
vt 0.744716 0.853714
vt 0.751624 0.852901
vt 0.758506 0.853903
vt 0.764894 0.856652
vt 0.770353 0.860962
vt 0.774510 0.866537
vt 0.777083 0.872998
vt 0.777896 0.879905
vt 0.776894 0.886787
vt 0.774144 0.893176
vt 0.769835 0.898634
vt 0.764260 0.902792
vt 0.757799 0.905365
vt 0.750892 0.906178
vt 0.744010 0.905176
vt 0.737621 0.902426
vt 0.732163 0.898117
vt 0.728005 0.892542
vt 0.725432 0.886081
vt 0.719930 0.898564
vt 0.724087 0.904139
vt 0.726660 0.910600
vt 0.727473 0.917508
vt 0.726471 0.924390
vt 0.723721 0.930778
vt 0.719412 0.936237
vt 0.713837 0.940395
vt 0.707376 0.942968
vt 0.700469 0.943781
vt 0.693586 0.942778
vt 0.687198 0.940029
vt 0.681739 0.935720
vt 0.677582 0.930144
vt 0.675009 0.923683
vt 0.674196 0.916776
vt 0.675198 0.909894
vt 0.677947 0.903506
vt 0.682256 0.898047
vt 0.687832 0.893889
vt 0.694293 0.891316
vt 0.701200 0.890503
vt 0.708082 0.891505
vt 0.714471 0.894255
vt 0.599199 0.488713
vt 0.599182 0.483348
vt 0.601319 0.483332
vt 0.601335 0.488683
vt 0.599201 0.477984
vt 0.599254 0.472621
vt 0.601390 0.472633
vt 0.601337 0.477982
vt 0.600346 0.525996
vt 0.600054 0.520772
vt 0.602146 0.520660
vt 0.602351 0.525882
vt 0.600934 0.429935
vt 0.603013 0.430077
vt 0.599341 0.467256
vt 0.601481 0.467284
vt 0.599816 0.515465
vt 0.601932 0.515366
vt 0.601355 0.424625
vt 0.603466 0.424849
vt 0.599461 0.461880
vt 0.601620 0.461926
vt 0.599620 0.510132
vt 0.601746 0.510047
vt 0.602093 0.419264
vt 0.604145 0.419820
vt 0.599601 0.456443
vt 0.601846 0.456517
vt 0.599462 0.504787
vt 0.601592 0.504715
vt 0.602186 0.547287
vt 0.601425 0.541937
vt 0.603463 0.541696
vt 0.599859 0.451085
vt 0.601906 0.451163
vt 0.599339 0.499434
vt 0.601472 0.499376
vt 0.600959 0.536668
vt 0.603071 0.536496
vt 0.600015 0.445732
vt 0.602244 0.445831
vt 0.599251 0.494075
vt 0.601386 0.494031
vt 0.600577 0.531306
vt 0.602790 0.531168
vt 0.608466 0.635840
vt 0.676123 0.630966
vt 0.609009 0.650119
vt 0.601660 0.422410
vt 0.612862 0.713770
vt 0.647350 0.710477
vt 0.611805 0.722683
vt 0.613442 0.705102
vt 0.647705 0.703547
vt 0.606421 0.778260
vt 0.647698 0.689844
vt 0.647859 0.696688
vt 0.613553 0.696465
vt 0.613631 0.687844
vt 0.607506 0.621780
vt 0.675618 0.614079
vt 0.609507 0.741977
vt 0.606018 0.607477
vt 0.674868 0.597582
vt 0.611102 0.661854
vt 0.674137 0.798923
vt 0.605044 0.788294
vt 0.517571 0.143209
vt 0.402150 0.148403
vt 0.403818 0.013359
vt 0.520062 0.021245
vt 0.516712 0.127546
vt 0.516397 0.121315
vt 0.518641 0.121233
vt 0.518785 0.127453
vt 0.516292 0.071576
vt 0.516482 0.065266
vt 0.518748 0.065356
vt 0.518448 0.071636
vt 0.519057 0.027701
vt 0.522264 0.021897
vt 0.521274 0.027980
vt 0.516942 0.133802
vt 0.519214 0.133682
vt 0.516181 0.077717
vt 0.518212 0.077763
vt 0.518427 0.034062
vt 0.520614 0.034252
vt 0.517339 0.140123
vt 0.519502 0.139980
vt 0.516016 0.083856
vt 0.518175 0.083895
vt 0.517916 0.040359
vt 0.520092 0.040513
vt 0.517803 0.146296
vt 0.519863 0.146142
vt 0.518199 0.090193
vt 0.515907 0.090178
vt 0.515972 0.102767
vt 0.515922 0.096519
vt 0.518108 0.096505
vt 0.518130 0.102731
vt 0.519644 0.046759
vt 0.517478 0.046629
vt 0.520476 0.152376
vt 0.518199 0.152562
vt 0.516080 0.108978
vt 0.518213 0.108923
vt 0.517109 0.052871
vt 0.519253 0.052979
vt 0.520960 0.158697
vt 0.518780 0.158919
vt 0.518314 0.115041
vt 0.516271 0.115105
vt 0.516833 0.059029
vt 0.518886 0.059121
vt 0.521591 0.164889
vt 0.519478 0.165189
vt 0.520514 0.171527
vt 0.522551 0.170920
vt 0.891284 0.101646
vt 0.892867 0.042614
vt 0.893353 0.039651
vt 0.897878 0.041147
vt 0.896003 0.126112
vt 0.891435 0.126136
vt 0.896308 0.087760
vt 0.891290 0.087744
vt 0.896122 0.102251
vt 0.891236 0.102236
vt 0.896234 0.063819
vt 0.891469 0.063761
vt 0.782484 0.796053
vt 0.782113 0.782588
vt 0.115627 0.827621
vt 0.115751 0.827833
vt 0.115822 0.828131
vt 0.115831 0.828498
vt 0.115803 0.828791
vt 0.115742 0.829112
vt 0.115630 0.829095
vt 0.115465 0.829116
vt 0.115299 0.829176
vt 0.115184 0.829239
vt 0.115034 0.828790
vt 0.114959 0.828387
vt 0.114966 0.828051
vt 0.115028 0.827778
vt 0.115098 0.827642
vt 0.115184 0.827544
vt 0.115281 0.827486
vt 0.115383 0.827471
vt 0.115485 0.827497
vt 0.782248 0.604517
vt 0.780568 0.740476
vt 0.779078 0.708535
vt 0.779532 0.720413
vt 0.647556 0.706452
vt 0.779549 0.720737
vt 0.778898 0.692273
vt 0.647780 0.693329
vt 0.647107 0.680110
vt 0.779271 0.675975
vt 0.781372 0.629723
vt 0.562247 0.850728
vt 0.624612 0.934356
vt 0.616536 0.940378
vt 0.626411 0.953619
vt 0.635525 0.948991
vt 0.635246 0.965466
vt 0.643321 0.959444
vt 0.590044 0.879174
vt 0.591046 0.872291
vt 0.593795 0.865903
vt 0.598104 0.860444
vt 0.603680 0.856287
vt 0.610141 0.853714
vt 0.617048 0.852901
vt 0.623930 0.853903
vt 0.630318 0.856653
vt 0.635777 0.860962
vt 0.639935 0.866537
vt 0.642508 0.872998
vt 0.643321 0.879905
vt 0.642319 0.886787
vt 0.639569 0.893176
vt 0.635260 0.898634
vt 0.629685 0.902792
vt 0.623223 0.905365
vt 0.616316 0.906178
vt 0.609434 0.905176
vt 0.603046 0.902426
vt 0.597587 0.898117
vt 0.593430 0.892542
vt 0.590857 0.886081
vt 0.600306 0.053419
vt 0.600643 0.048205
vt 0.602620 0.048322
vt 0.602416 0.053536
vt 0.585354 0.898564
vt 0.589512 0.904139
vt 0.592085 0.910600
vt 0.592898 0.917508
vt 0.591895 0.924390
vt 0.589146 0.930778
vt 0.584837 0.936237
vt 0.579262 0.940395
vt 0.572800 0.942968
vt 0.565893 0.943781
vt 0.559011 0.942778
vt 0.552623 0.940029
vt 0.547164 0.935720
vt 0.543006 0.930145
vt 0.540433 0.923683
vt 0.539620 0.916776
vt 0.540622 0.909894
vt 0.543372 0.903506
vt 0.547681 0.898047
vt 0.553256 0.893889
vt 0.559718 0.891316
vt 0.566625 0.890503
vt 0.573507 0.891505
vt 0.579895 0.894255
vt 0.599199 0.101779
vt 0.599183 0.096414
vt 0.601319 0.096399
vt 0.601335 0.101749
vt 0.601337 0.091048
vt 0.599201 0.091050
vt 0.599254 0.085687
vt 0.601390 0.085699
vt 0.600346 0.139063
vt 0.600055 0.133838
vt 0.602146 0.133726
vt 0.602351 0.138948
vt 0.600935 0.043001
vt 0.603014 0.043143
vt 0.599341 0.080322
vt 0.601481 0.080350
vt 0.599816 0.128532
vt 0.601932 0.128432
vt 0.601355 0.037691
vt 0.603467 0.037915
vt 0.599461 0.074946
vt 0.601620 0.074992
vt 0.599620 0.123199
vt 0.601746 0.123113
vt 0.602093 0.032330
vt 0.604145 0.032886
vt 0.599601 0.069509
vt 0.601846 0.069583
vt 0.599462 0.117853
vt 0.601592 0.117781
vt 0.604110 0.159832
vt 0.602186 0.160353
vt 0.601425 0.155003
vt 0.603463 0.154762
vt 0.599859 0.064151
vt 0.601906 0.064230
vt 0.599339 0.112500
vt 0.601472 0.112442
vt 0.600959 0.149734
vt 0.603071 0.149562
vt 0.600015 0.058798
vt 0.602244 0.058897
vt 0.599252 0.107141
vt 0.601386 0.107097
vt 0.600577 0.144372
vt 0.602790 0.144234
vt 0.599226 0.104460
vt 0.601232 0.152826
s 1
usemtl None_16InchTripleGuns_CM.dds.001
f 17/1/1 5/2/2 4/3/3
f 18/4/4 6/5/5 5/2/2
f 15/6/6 606/7/7 605/8/8
f 3/9/9 16/10/10 4/3/3
f 624/11/11 615/12/12 23/13/13
f 615/12/12 624/11/11 14/14/14
f 622/15/15 21/16/16 20/17/17
f 620/18/18 18/19/4 17/20/1
f 623/21/19 22/22/20 21/16/16
f 621/23/21 19/24/22 18/19/4
f 619/25/23 16/26/10 15/27/6
f 622/15/15 20/17/17 19/28/22
f 651/29/24 699/30/25 696/31/26
f 694/32/27 649/33/28 698/34/29
f 700/35/30 654/36/31 695/37/32
f 652/38/33 697/39/34 699/40/25
f 650/41/35 696/31/26 698/34/29
f 652/38/33 693/42/36 697/39/34
f 655/43/37 694/32/27 695/37/32
f 77/44/38 668/45/39 78/46/39
f 70/47/38 664/48/38 71/49/40
f 661/50/38 65/51/39 64/52/38
f 665/53/38 653/54/38 72/55/38
f 657/56/38 57/57/38 80/58/38
f 66/59/39 662/60/38 67/61/38
f 658/62/38 60/63/40 59/64/38
f 667/65/40 76/66/38 75/67/40
f 68/68/38 663/69/38 69/70/38
f 659/71/38 62/72/38 61/73/38
f 82/74/41 671/75/42 83/76/43
f 675/77/44 81/78/45 86/79/46
f 84/80/47 673/81/48 85/82/49
f 670/83/50 82/74/41 81/78/45
f 674/84/51 86/79/46 85/82/49
f 672/85/52 84/80/47 83/86/43
f 8/87/53 111/88/54 110/89/55
f 9/90/56 112/91/57 111/88/54
f 10/92/58 112/91/57 9/90/56
f 10/92/58 113/93/59 112/91/57
f 11/94/60 113/93/59 10/92/58
f 4/3/3 107/95/61 3/9/9
f 688/96/62 680/97/63 679/98/64
f 677/99/65 685/100/66 678/101/67
f 689/102/68 681/103/69 680/97/63
f 678/101/67 686/104/70 679/98/64
f 683/105/71 692/106/72 676/107/73
f 681/103/69 690/108/74 682/109/75
f 676/110/73 684/111/76 677/99/65
f 194/112/77 49/113/78 48/114/79
f 195/115/80 55/116/81 54/117/82
f 49/113/78 196/118/83 50/119/84
f 55/116/81 195/115/80 56/120/85
f 52/121/86 197/122/87 53/123/88
f 53/123/88 200/124/89 54/117/82
f 204/125/90 216/126/91 205/127/92
f 214/128/93 724/129/94 723/130/95
f 203/131/96 215/132/97 204/125/90
f 224/133/98 742/134/99 213/135/100
f 740/136/101 221/137/102 220/138/103
f 739/139/104 219/140/105 218/141/106
f 816/142/107 767/143/108 821/144/109
f 768/145/110 818/146/111 821/144/109
f 773/147/112 817/148/113 820/149/114
f 770/150/115 815/151/116 819/152/117
f 818/146/111 768/145/110 822/153/118
f 276/154/38 786/155/38 277/156/38
f 270/157/39 782/158/39 271/159/39
f 779/160/38 265/161/38 264/162/38
f 783/163/38 771/164/38 272/165/39
f 775/166/38 257/167/38 279/168/38
f 266/169/38 780/170/38 267/171/38
f 259/172/38 776/173/38 260/174/38
f 785/175/38 275/176/38 274/177/38
f 268/178/38 781/179/38 269/180/39
f 777/181/38 262/182/38 261/183/38
f 789/184/119 281/185/120 280/186/121
f 791/187/122 283/188/123 282/189/124
f 794/190/125 285/191/126 284/192/127
f 790/193/128 282/194/124 281/185/120
f 788/195/129 280/186/121 285/191/126
f 209/196/130 314/197/131 208/198/132
f 210/199/133 315/200/134 209/196/130
f 204/125/90 309/201/135 203/131/96
f 204/125/90 310/202/136 309/201/135
f 796/203/137 805/204/138 797/205/139
f 795/206/140 805/204/138 796/203/137
f 812/207/141 802/208/142 801/209/143
f 809/210/144 799/211/145 798/212/146
f 396/213/147 249/214/148 248/215/149
f 395/216/150 252/217/151 251/218/152
f 254/219/153 397/220/154 255/221/155
f 398/222/156 253/223/157 252/217/151
f 249/214/148 399/224/158 250/225/159
f 400/226/160 256/227/161 255/221/155
f 399/224/158 251/218/152 250/225/159
f 253/228/157 401/229/162 254/219/153
f 402/230/163 248/215/149 256/227/161
f 423/231/164 411/232/165 410/233/166
f 416/234/167 846/235/168 845/236/95
f 425/237/169 849/238/170 412/239/171
f 861/240/172 423/241/164 422/242/173
f 863/243/174 415/244/175 425/245/169
f 862/246/176 424/247/177 423/241/164
f 860/248/178 421/249/179 420/250/180
f 858/251/181 418/252/182 417/253/183
f 937/254/184 891/255/185 938/256/186
f 889/257/187 940/258/188 935/259/189
f 474/260/190 939/261/191 934/262/192
f 890/263/193 937/254/184 940/258/188
f 894/264/194 936/265/195 939/261/191
f 892/266/196 934/262/192 938/267/186
f 478/268/38 907/269/38 479/270/38
f 471/271/39 903/272/39 472/273/39
f 900/274/40 466/275/197 465/276/40
f 904/277/38 893/278/38 473/279/38
f 896/280/38 458/281/38 481/282/38
f 467/283/39 901/284/39 468/285/38
f 897/286/38 461/287/40 460/288/38
f 906/289/38 477/290/38 476/291/38
f 469/292/39 902/293/39 470/294/39
f 898/295/38 463/296/198 462/297/38
f 909/298/199 483/299/200 482/300/201
f 913/301/202 488/302/203 487/303/204
f 911/304/205 486/305/206 485/306/207
f 909/298/199 484/307/208 483/299/200
f 488/302/203 914/308/209 482/300/201
f 912/309/210 487/303/204 486/310/206
f 484/307/208 910/311/211 485/306/207
f 411/232/165 514/312/212 410/233/166
f 406/313/213 510/314/214 405/315/215
f 427/316/216 416/317/167 415/244/175
f 929/318/217 920/319/218 919/320/219
f 930/321/220 921/322/221 920/319/218
f 927/323/222 918/324/223 917/325/224
f 928/326/225 919/320/219 918/324/223
f 915/327/226 925/328/227 916/329/228
f 931/330/229 922/331/142 921/322/221
f 602/332/230 456/333/231 455/334/232
f 451/335/233 597/336/234 452/337/235
f 598/338/236 457/339/237 456/333/231
f 599/340/238 455/334/232 454/341/239
f 452/337/235 600/342/240 453/343/241
f 601/344/242 450/345/243 457/339/237
f 21/346/16 9/90/56 8/87/53 20/347/17
f 616/348/244 611/349/245 608/350/246 614/351/247
f 5/2/2 17/1/1 18/4/4
f 603/352/248 604/353/249 613/354/249 612/355/250
f 613/354/249 604/353/249 611/349/245 616/348/244
f 605/8/8 603/352/248 612/355/250 15/6/6
f 22/356/20 10/92/58 9/90/56 21/346/16
f 7/357/251 6/5/5 18/4/4 19/358/22
f 607/9/252 606/7/7 15/6/6 16/359/10
f 11/94/60 10/92/58 22/356/20 23/360/13
f 8/87/53 7/361/251 19/362/22 20/347/17
f 609/363/253 11/94/60 23/360/13 615/364/12
f 4/3/3 16/10/10 17/1/1
f 17/20/1 16/26/10 619/25/23 620/18/18
f 15/27/6 14/14/14 25/365/254 619/25/23
f 624/11/11 25/365/254 14/14/14
f 622/15/15 623/21/19 21/16/16
f 18/19/4 620/18/18 621/23/21
f 23/13/13 22/22/20 623/21/19 624/11/11
f 29/366/38 28/367/38 629/368/38 630/369/38
f 621/23/21 622/370/15 19/24/22
f 44/371/38 43/372/38 644/373/38 645/374/38
f 37/375/38 36/376/38 637/121/38 638/377/38
f 30/378/38 29/366/38 630/369/38 631/379/38
f 45/380/38 44/371/38 645/374/38 646/381/38
f 38/382/38 37/375/38 638/377/38 639/383/38
f 632/384/38 31/385/38 30/378/38 631/379/38
f 46/386/38 45/380/38 646/381/38 647/387/38
f 640/388/38 39/389/38 38/382/38 639/383/38
f 32/390/38 31/385/38 632/384/38 633/391/38
f 47/392/38 46/386/38 647/387/38 648/393/38
f 625/394/38 617/395/38 618/396/38 626/397/38
f 641/398/38 40/399/38 39/389/38 640/388/38
f 634/400/38 33/401/38 32/390/38 633/391/38
f 618/396/38 47/392/38 648/393/38 626/397/38
f 627/402/38 26/403/38 617/395/38 625/394/38
f 642/404/38 41/405/38 40/399/38 641/398/38
f 635/406/38 34/407/38 33/401/38 634/400/38
f 628/408/38 27/409/38 26/403/38 627/402/38
f 42/410/38 41/405/38 642/404/38 643/411/38
f 636/412/38 35/413/38 34/407/38 635/406/38
f 629/368/38 28/367/38 27/409/38 628/408/38
f 644/373/38 43/372/38 42/410/38 643/411/38
f 36/370/38 35/413/38 636/412/38 637/414/38
f 700/35/30 693/42/36 73/415/255 654/36/31
f 650/41/35 651/29/24 696/31/26
f 655/43/37 649/33/28 694/32/27
f 668/45/39 77/44/38 76/66/38 667/65/40
f 649/33/28 650/41/35 698/34/29
f 651/29/24 652/70/33 699/30/25
f 695/37/32 654/36/31 655/43/37
f 70/47/38 69/416/38 663/417/38 664/48/38
f 63/418/38 62/72/38 659/71/38 660/419/38
f 64/52/38 63/418/38 660/419/38 661/50/38
f 669/420/38 79/421/38 78/46/39 668/45/39
f 72/55/38 71/49/40 664/48/38 665/53/38
f 80/58/38 79/421/38 669/420/38 657/56/38
f 656/422/38 58/423/38 57/57/38 657/56/38
f 662/60/38 66/59/39 65/51/39 661/50/38
f 59/64/38 58/423/38 656/422/38 658/62/38
f 74/424/38 653/54/38 665/53/38 666/425/38
f 75/67/40 74/424/38 666/425/38 667/65/40
f 68/68/38 67/61/38 662/60/38 663/69/38
f 659/71/38 61/73/38 60/63/40 658/62/38
f 81/78/45 675/77/44 670/83/50
f 673/81/48 674/84/51 85/82/49
f 83/76/43 671/75/42 672/85/52
f 82/74/41 670/83/50 671/75/42
f 674/84/51 675/77/44 86/79/46
f 84/80/47 672/85/52 673/81/48
f 110/426/55 109/427/256 6/5/5 7/357/251
f 614/351/247 608/350/246 610/363/257 24/364/257
f 100/428/38 99/429/38 98/430/38 97/431/38 96/432/38 95/433/38 94/434/38 93/435/38 92/436/38 91/437/38 90/438/38 89/439/38 88/440/38 87/441/38 104/442/38 103/443/38 102/444/38 101/445/38
f 116/446/258 115/447/259 12/363/259 13/448/260
f 7/361/251 8/87/53 110/89/55
f 8/87/53 9/90/56 111/88/54
f 11/94/60 114/449/261 113/93/59
f 11/94/60 609/363/253 114/449/261
f 105/450/262 116/446/258 13/448/260 1/451/263
f 105/450/262 1/451/263 2/452/264 106/453/265
f 106/453/265 2/452/264 3/9/9 107/95/61
f 108/454/266 107/95/61 4/3/3 5/2/2
f 109/427/256 108/454/266 5/2/2 6/5/5
f 683/105/71 682/109/75 691/455/267 692/106/72
f 693/42/36 652/38/33 73/415/255
f 677/99/65 684/111/76 685/100/66
f 690/108/74 691/455/267 682/109/75
f 680/97/63 688/96/62 689/102/68
f 678/101/67 685/100/66 686/104/70
f 686/104/70 687/456/268 679/98/64
f 676/110/73 692/457/72 684/111/76
f 689/102/68 690/108/74 681/103/69
f 687/456/268 688/96/62 679/98/64
f 151/458/38 150/459/38 149/460/38 148/461/38 147/462/38 146/463/38 145/464/38 144/465/38 143/466/38 142/467/38 141/468/38 164/469/38 163/470/38 162/471/38 161/472/38 160/473/38 159/474/38 158/475/38 157/476/38 156/477/38 155/478/38 154/479/38 153/480/38 152/481/38
f 125/482/269 126/483/269 127/484/269 128/485/269 129/486/269 130/487/269 131/488/269 132/489/269 133/490/269 134/491/269 135/492/269 136/493/269 137/494/269 138/495/269 139/496/269 140/497/269 117/498/269 118/499/269 119/500/269 120/501/269 121/502/269 122/503/269 123/504/269 124/505/269
f 188/506/38 192/507/38 720/508/38 184/509/38
f 191/510/38 702/511/38 166/512/38 187/513/38
f 186/514/38 190/515/38 719/516/38 183/517/38
f 189/518/38 718/519/38 182/520/38 185/521/38
f 184/509/38 720/508/38 717/522/38 181/523/38
f 183/517/38 719/516/38 716/524/38 180/525/38
f 718/519/38 715/526/38 179/527/38 182/520/38
f 181/523/38 717/522/38 714/528/38 178/529/38
f 180/525/38 716/524/38 713/530/38 177/531/38
f 715/526/38 712/532/38 176/533/38 179/527/38
f 714/528/38 711/534/38 175/40/38 178/529/38
f 177/531/38 713/530/38 710/535/38 174/536/38
f 712/532/38 709/537/38 173/538/38 176/533/38
f 711/539/38 708/540/38 172/541/38 175/542/38
f 174/536/38 710/535/38 707/543/38 171/544/38
f 173/538/38 709/537/38 706/545/38 170/546/38
f 172/541/38 708/540/38 705/547/38 169/548/38
f 171/544/38 707/543/38 704/549/38 168/550/38
f 706/545/38 703/551/38 167/552/38 170/546/38
f 169/548/38 705/547/38 701/553/38 165/554/38
f 168/550/38 704/549/38 192/507/38 188/506/38
f 703/551/38 191/510/38 187/513/38 167/552/38
f 702/511/38 190/515/38 186/514/38 166/512/38
f 165/554/38 701/553/38 189/518/38 185/521/38
f 51/555/270 50/119/84 198/556/271 193/557/272
f 52/558/86 51/555/270 193/557/272 197/559/87
f 200/124/89 195/115/80 54/117/82
f 49/113/78 194/112/77 196/118/83
f 48/114/79 56/120/85 199/560/273 194/112/77
f 196/118/83 198/556/271 50/119/84
f 56/120/85 195/115/80 199/560/273
f 197/122/87 200/124/89 53/123/88
f 732/561/247 726/562/246 728/563/257 223/564/257
f 220/565/103 208/198/132 207/566/274 219/567/105
f 733/568/244 729/569/245 726/562/246 732/561/247
f 721/570/275 722/571/249 731/572/249 730/573/276
f 731/572/249 722/571/249 729/569/245 733/568/244
f 205/127/92 216/126/91 217/574/277
f 723/130/95 721/570/275 730/573/276 214/128/93
f 209/196/130 208/198/132 220/565/103 221/575/102
f 218/576/106 206/577/278 205/127/92 217/574/277
f 725/131/279 724/129/94 214/128/93 215/578/97
f 222/579/280 210/199/133 209/196/130 221/575/102
f 219/567/105 207/566/274 206/580/278 218/581/106
f 727/563/281 210/199/133 222/579/280 224/564/98
f 204/125/90 215/132/97 216/126/91
f 737/582/282 216/583/91 215/584/97 736/585/283
f 224/133/98 222/586/280 741/587/284 742/134/99
f 220/138/103 219/140/105 739/139/104 740/136/101
f 217/588/277 216/583/91 737/582/282 738/589/285
f 218/590/106 217/588/277 738/589/285 739/591/104
f 736/585/283 215/584/97 214/592/93 225/593/286
f 741/587/284 222/586/280 221/137/102 740/136/101
f 229/594/38 228/595/38 747/596/38 748/597/38
f 244/598/38 243/599/38 762/600/38 763/601/38
f 237/602/38 236/603/38 755/604/38 756/605/38
f 230/606/38 229/594/38 748/597/38 749/607/38
f 764/608/38 245/609/38 244/598/38 763/601/38
f 238/610/38 237/602/38 756/605/38 757/611/38
f 750/612/38 231/613/38 230/606/38 749/607/38
f 765/614/38 246/615/38 245/609/38 764/608/38
f 758/616/38 239/617/38 238/610/38 757/611/38
f 232/618/38 231/613/38 750/612/38 751/619/38
f 247/620/38 246/615/38 765/614/38 766/621/38
f 743/622/38 734/623/38 735/624/38 744/625/38
f 759/626/38 240/627/38 239/617/38 758/616/38
f 752/628/38 233/629/38 232/618/38 751/619/38
f 735/624/38 247/620/38 766/621/38 744/625/38
f 226/630/38 734/623/38 743/622/38 745/631/38
f 760/632/38 241/633/38 240/627/38 759/626/38
f 753/634/38 234/635/38 233/629/38 752/628/38
f 227/636/38 226/630/38 745/631/38 746/637/38
f 242/638/38 241/633/38 760/632/38 761/639/38
f 754/640/38 235/641/38 234/635/38 753/634/38
f 228/595/38 227/636/38 746/637/38 747/596/38
f 762/600/38 243/599/38 242/638/38 761/639/38
f 236/642/38 235/641/38 754/640/38 755/223/38
f 816/142/107 817/148/113 773/147/112 767/143/108
f 822/153/118 768/145/110 769/643/287
f 820/149/114 815/151/116 770/150/115 772/644/288
f 819/645/117 822/153/118 769/643/287 770/180/115
f 821/144/109 767/143/108 768/145/110
f 786/155/38 276/154/38 275/176/38 785/175/38
f 820/149/114 772/644/288 773/147/112
f 270/157/39 269/646/39 781/647/38 782/158/39
f 263/648/38 262/182/38 777/181/38 778/649/38
f 779/160/38 264/162/38 263/648/38 778/649/38
f 787/650/38 278/651/38 277/156/38 786/155/38
f 272/165/39 271/159/39 782/158/39 783/163/38
f 775/166/38 279/168/38 278/651/38 787/650/38
f 774/652/38 258/653/38 257/167/38 775/166/38
f 780/170/38 266/169/38 265/161/38 779/160/38
f 259/172/38 258/653/38 774/652/38 776/173/38
f 784/654/38 273/655/38 771/164/38 783/163/38
f 274/177/38 273/655/38 784/654/38 785/175/38
f 268/178/38 267/171/38 780/170/38 781/179/38
f 777/181/38 261/183/38 260/174/38 776/173/38
f 793/656/289 284/192/127 283/188/123 792/657/290
f 285/191/126 794/190/125 788/195/129
f 312/658/291 311/659/292 205/127/92 206/577/278
f 282/194/124 790/193/128 791/187/122
f 788/195/129 789/184/119 280/186/121
f 789/184/119 790/193/128 281/185/120
f 793/656/289 794/190/125 284/192/127
f 791/187/122 792/657/290 283/188/123
f 293/660/38 292/661/38 291/662/38 290/663/38 289/664/38 288/665/38 287/666/38 286/667/38 306/668/38 305/669/38 304/670/38 303/671/38 302/672/38 301/673/38 300/674/38 299/675/38 298/676/38 297/677/38 296/678/38 295/679/38 294/680/38
f 312/681/291 206/580/278 207/566/274 313/682/293
f 313/682/293 207/566/274 208/198/132 314/197/131
f 318/683/258 317/684/259 211/563/259 212/685/260
f 209/196/130 315/200/134 314/197/131
f 210/199/133 316/686/294 315/200/134
f 210/199/133 727/563/281 316/686/294
f 307/687/262 318/683/258 212/685/260 201/688/263
f 307/687/262 201/688/263 202/689/295 308/690/296
f 308/690/296 202/689/295 203/131/96 309/201/135
f 311/659/292 310/202/136 204/125/90 205/127/92
f 214/592/93 213/135/100 742/134/99 225/593/286
f 813/691/297 803/692/298 802/208/142 812/207/141
f 800/693/299 799/211/145 809/210/144 810/694/300
f 804/695/301 803/692/298 813/691/297 814/696/302
f 797/205/139 805/204/138 807/697/303
f 801/209/143 800/693/299 810/694/300 811/698/304
f 808/699/305 798/212/146 797/205/139 807/697/303
f 806/700/306 795/701/140 804/695/301 814/696/302
f 806/702/306 805/204/138 795/206/140
f 811/698/304 812/207/141 801/209/143
f 808/699/305 809/210/144 798/212/146
f 390/703/38 394/704/38 842/705/38 386/706/38
f 353/707/38 352/708/38 351/709/38 350/710/38 349/711/38 348/712/38 347/713/38 346/714/38 345/715/38 344/716/38 343/717/38 366/718/38 365/719/38 364/720/38 363/721/38 362/722/38 361/723/38 360/724/38 359/725/38 358/726/38 357/727/38 356/728/38 355/729/38 354/730/38
f 331/731/269 332/732/269 333/733/269 334/734/269 335/735/269 336/736/269 337/737/269 338/738/269 339/739/269 340/740/269 341/741/269 342/742/269 319/743/269 320/744/269 321/745/269 322/746/269 323/747/269 324/748/269 325/749/269 326/750/269 327/751/269 328/752/269 329/753/269 330/754/269
f 393/755/38 824/756/38 368/757/38 389/758/38
f 392/759/38 841/760/38 385/761/38 388/762/38
f 391/763/38 840/764/38 384/765/38 387/766/38
f 386/706/38 842/705/38 839/767/38 383/768/38
f 385/761/38 841/760/38 838/769/38 382/770/38
f 840/764/38 837/771/38 381/772/38 384/765/38
f 383/768/38 839/767/38 836/773/38 380/774/38
f 838/769/38 835/775/38 379/776/38 382/770/38
f 837/771/38 834/777/38 378/778/38 381/772/38
f 836/773/38 833/779/38 377/780/38 380/774/38
f 379/776/38 835/775/38 832/781/38 376/782/38
f 378/778/38 834/777/38 831/783/38 375/784/38
f 377/645/38 833/785/38 830/786/38 374/787/38
f 376/782/38 832/781/38 829/788/38 373/789/38
f 375/784/38 831/783/38 828/790/38 372/791/38
f 374/787/38 830/786/38 827/792/38 371/793/38
f 373/789/38 829/788/38 826/794/38 370/795/38
f 828/790/38 825/796/38 369/797/38 372/791/38
f 827/792/38 823/798/38 367/799/38 371/793/38
f 370/795/38 826/794/38 394/704/38 390/703/38
f 825/796/38 393/755/38 389/758/38 369/797/38
f 824/756/38 392/759/38 388/762/38 368/757/38
f 823/798/38 391/763/38 387/766/38 367/799/38
f 419/800/307 407/801/308 406/313/213 418/802/182
f 401/229/162 397/220/154 254/219/153
f 252/217/151 395/216/150 398/222/156
f 396/213/147 399/224/158 249/214/148
f 397/220/154 400/226/160 255/221/155
f 398/803/156 401/229/162 253/228/157
f 256/227/161 400/226/160 402/230/163
f 251/218/152 399/224/158 395/216/150
f 402/230/163 396/213/147 248/215/149
f 854/804/247 848/805/246 850/238/257 426/806/257
f 855/807/244 851/808/245 848/805/246 854/804/247
f 410/233/166 422/809/173 423/231/164
f 843/810/275 844/811/249 853/812/249 852/813/276
f 420/814/180 408/815/309 407/801/308 419/800/307
f 853/812/249 844/811/249 851/808/245 855/807/244
f 845/236/95 843/810/275 852/813/276 416/234/167
f 412/239/171 411/232/165 423/231/164 424/816/177
f 421/817/179 409/818/310 408/815/309 420/814/180
f 847/315/311 846/235/168 416/234/167 417/819/183
f 418/802/182 406/313/213 405/315/215 417/819/183
f 422/809/173 410/233/166 409/820/310 421/821/179
f 424/816/177 425/237/169 412/239/171
f 859/822/312 419/823/307 418/252/182 858/251/181
f 420/250/180 419/823/307 859/822/312 860/248/178
f 858/251/181 417/253/183 416/317/167 427/316/216
f 415/244/175 863/243/174 427/316/216
f 861/240/172 862/246/176 423/241/164
f 425/245/169 424/247/177 862/246/176 863/243/174
f 422/242/173 421/824/179 860/825/178 861/240/172
f 431/826/38 430/827/38 868/828/38 869/829/38
f 446/830/38 445/831/38 883/832/38 884/833/38
f 439/834/38 438/825/38 876/835/38 877/836/38
f 432/837/38 431/826/38 869/829/38 870/838/38
f 447/839/38 446/830/38 884/833/38 885/840/38
f 440/841/38 439/834/38 877/836/38 878/842/38
f 433/843/38 432/837/38 870/838/38 871/844/38
f 448/845/38 447/839/38 885/840/38 886/846/38
f 441/847/38 440/841/38 878/842/38 879/848/38
f 434/849/38 433/843/38 871/844/38 872/850/38
f 887/851/38 449/852/38 448/845/38 886/846/38
f 856/853/38 857/854/38 865/855/38 864/856/38
f 880/857/38 442/858/38 441/847/38 879/848/38
f 873/859/38 435/860/38 434/849/38 872/850/38
f 865/855/38 857/854/38 449/852/38 887/851/38
f 428/861/38 856/853/38 864/856/38 866/862/38
f 443/863/38 442/858/38 880/857/38 881/864/38
f 874/865/38 436/866/38 435/860/38 873/859/38
f 867/867/38 429/868/38 428/861/38 866/862/38
f 444/869/38 443/863/38 881/864/38 882/870/38
f 875/871/38 437/872/38 436/866/38 874/865/38
f 868/828/38 430/827/38 429/868/38 867/867/38
f 883/832/38 445/831/38 444/869/38 882/870/38
f 438/873/38 437/872/38 875/871/38 876/874/38
f 888/875/313 935/259/189 936/265/195 894/264/194
f 478/268/38 477/290/38 906/289/38 907/269/38
f 890/263/193 891/255/185 937/254/184
f 935/259/189 888/875/313 889/257/187
f 939/261/191 474/260/190 894/264/194
f 889/257/187 890/263/193 940/258/188
f 891/876/185 892/266/196 938/267/186
f 471/271/39 470/877/39 902/878/39 903/272/39
f 899/879/38 464/880/38 463/296/198 898/295/38
f 900/274/40 465/276/40 464/880/38 899/879/38
f 908/881/38 480/882/38 479/270/38 907/269/38
f 473/279/38 472/273/39 903/272/39 904/277/38
f 481/282/38 480/882/38 908/881/38 896/280/38
f 895/883/38 459/884/38 458/281/38 896/280/38
f 901/284/39 467/283/39 466/275/197 900/274/40
f 460/288/38 459/884/38 895/883/38 897/286/38
f 905/885/38 475/886/38 893/278/38 904/277/38
f 476/291/38 475/886/38 905/885/38 906/289/38
f 469/292/39 468/285/38 901/284/39 902/293/39
f 462/297/38 461/287/40 897/286/38 898/295/38
f 512/887/314 409/820/310 410/233/166 513/888/315
f 910/311/211 911/304/205 485/306/207
f 911/304/205 912/309/210 486/305/206
f 913/301/202 914/308/209 488/302/203
f 909/298/199 910/311/211 484/307/208
f 914/308/209 909/298/199 482/300/201
f 487/303/204 912/309/210 913/301/202
f 503/889/38 502/890/38 501/891/38 500/892/38 499/893/38 498/894/38 497/895/38 496/896/38 495/897/38 494/898/38 493/899/38 492/900/38 491/901/38 490/902/38 489/903/38 507/904/38 506/905/38 505/906/38 504/907/38
f 408/815/309 409/818/310 512/908/314
f 514/312/212 411/232/165 412/239/171 515/909/316
f 410/233/166 514/312/212 513/888/315
f 518/910/258 517/911/259 413/238/259 414/912/260
f 412/239/171 516/913/317 515/909/316
f 412/239/171 849/238/170 516/913/317
f 508/914/262 518/910/258 414/912/260 403/915/263
f 508/914/262 403/915/263 404/916/318 509/917/319
f 509/917/319 404/916/318 405/315/215 510/314/214
f 510/314/214 406/313/213 407/801/308 511/918/320
f 926/919/321 917/325/224 916/329/228 925/328/227
f 407/801/308 408/815/309 511/918/320
f 408/815/309 512/908/314 511/918/320
f 892/266/196 474/260/190 934/262/192
f 932/920/322 923/921/323 922/331/142 931/330/229
f 924/922/324 923/921/323 932/920/322 933/923/325
f 920/319/218 929/318/217 930/321/220
f 926/919/321 927/323/222 917/325/224
f 915/924/226 924/922/324 933/923/325 925/925/227
f 927/323/222 928/326/225 918/324/223
f 930/321/220 931/330/229 921/322/221
f 928/326/225 929/318/217 919/320/219
f 553/926/38 552/927/38 551/928/38 550/929/38 549/930/38 548/931/38 547/932/38 546/933/38 545/934/38 544/935/38 543/936/38 566/937/38 565/938/38 564/939/38 563/940/38 562/941/38 561/942/38 560/943/38 559/944/38 558/945/38 557/946/38 556/947/38 555/948/38 554/949/38
f 594/950/38 960/951/38 586/952/38 590/953/38
f 531/954/269 532/955/269 533/956/269 534/957/269 535/958/269 536/959/269 537/960/269 538/961/269 539/962/269 540/963/269 541/964/269 542/965/269 519/966/269 520/967/269 521/968/269 522/969/269 523/970/269 524/971/269 525/972/269 526/973/269 527/974/269 528/975/269 529/976/269 530/977/269
f 593/978/38 942/979/38 568/980/38 589/981/38
f 588/982/38 592/983/38 959/984/38 585/985/38
f 591/986/38 958/987/38 584/988/38 587/989/38
f 960/951/38 957/990/38 583/991/38 586/952/38
f 585/985/38 959/984/38 956/992/38 582/993/38
f 958/987/38 955/994/38 581/995/38 584/988/38
f 583/991/38 957/990/38 954/996/38 580/997/38
f 582/993/38 956/992/38 953/998/38 579/999/38
f 955/994/38 952/1000/38 578/1001/38 581/995/38
f 580/997/38 954/996/38 951/1002/38 577/1003/38
f 579/999/38 953/998/38 950/1004/38 576/1005/38
f 952/1000/38 949/1006/38 575/1007/38 578/1001/38
f 577/1008/38 951/1009/38 948/1010/38 574/1011/38
f 576/1005/38 950/1004/38 947/1012/38 573/1013/38
f 575/1007/38 949/1006/38 946/1014/38 572/1015/38
f 574/1011/38 948/1010/38 945/1016/38 571/1017/38
f 573/1013/38 947/1012/38 944/1018/38 570/1019/38
f 572/1015/38 946/1014/38 943/1020/38 569/1021/38
f 571/1017/38 945/1016/38 941/1022/38 567/1023/38
f 570/1019/38 944/1018/38 594/950/38 590/953/38
f 943/1020/38 593/978/38 589/981/38 569/1021/38
f 942/979/38 592/983/38 588/982/38 568/980/38
f 941/1022/38 591/986/38 587/989/38 567/1023/38
f 451/335/233 450/345/243 595/1024/326 597/336/234
f 600/342/240 596/1025/327 453/343/241
f 454/874/239 453/343/241 596/1025/327 599/1009/238
f 602/332/230 598/338/236 456/333/231
f 597/336/234 600/342/240 452/337/235
f 457/339/237 598/338/236 601/344/242
f 455/334/232 599/340/238 602/332/230
f 450/345/243 601/344/242 595/1024/326
